<svg xmlns="http://www.w3.org/2000/svg" width="210" height="133" viewBox="0 0 210 133" role="img" aria-label="happyin.ai — Own R&amp;D studio · founder. C++ Photoshop plugin + on-device retouching models. Custom-trained networks, novel hi-res tiling architectures."><title>happyin.ai — Own R&amp;D studio · founder. C++ Photoshop plugin + on-device retouching models. Custom-trained networks, novel hi-res tiling architectures.</title><defs><pattern id="stripes" width="4" height="2" patternUnits="userSpaceOnUse"><rect width="4" height="1" fill="#000"/></pattern><path id="i115" d="M89 -9Q53 -9 33 22Q13 53 13 113Q13 170 29 228Q45 285 73 337Q101 389 136 429Q172 469 212 492Q251 516 290 516Q309 516 326 508Q343 501 354 485Q360 476 366 476Q372 476 378 485Q389 501 396 506Q403 510 409 510Q422 510 419 496L330 113Q315 48 350 48Q373 48 392 79Q410 110 429 175Q432 186 442 186Q449 186 451 180Q453 174 451 166Q432 72 400 32Q368 -9 323 -9Q284 -9 268 24Q251 57 264 114L277 169Q279 176 274 177Q270 178 267 172Q212 71 170 31Q127 -9 89 -9ZM114 42Q138 42 167 71Q196 100 224 146Q253 192 277 245Q301 298 316 347Q330 396 330 430Q330 491 287 491Q261 491 232 468Q203 444 176 404Q150 364 128 314Q107 263 94 208Q81 154 81 102Q81 67 90 54Q98 42 114 42Z"/><path id="i151" d="M322 -9Q286 -9 268 21Q250 51 266 114L343 404Q354 443 346 458Q339 473 325 473Q303 473 276 446Q248 418 218 370Q189 323 162 264Q134 204 111 138Q88 73 74 11Q71 0 60 0H18Q4 0 7 13L153 640Q158 658 154 665Q149 672 135 673L105 676Q90 677 92 689Q94 698 106 700Q142 706 170 714Q198 723 215 737Q223 743 230 743Q242 743 239 728L141 303Q140 296 144 295Q148 294 151 300Q191 382 227 429Q263 476 294 496Q326 516 352 516Q389 516 406 486Q423 456 406 394L330 104Q323 76 329 62Q335 48 351 48Q371 48 390 74Q409 101 431 175Q434 186 444 186Q452 186 454 180Q455 174 453 166Q434 98 412 60Q390 21 368 6Q345 -9 322 -9Z"/><path id="i153" d="M204 605Q185 605 172 618Q160 632 160 651Q160 678 176 694Q193 710 214 710Q234 710 248 698Q261 685 261 665Q261 637 244 621Q227 605 204 605ZM122 -10Q89 -10 75 14Q61 39 74 95L148 412Q153 434 150 446Q146 459 131 459Q113 459 92 432Q70 406 43 332Q39 319 29 319Q14 319 21 337Q43 406 68 445Q92 484 117 500Q142 516 163 516Q198 516 212 492Q226 467 213 411L139 94Q134 72 138 60Q141 47 156 47Q174 47 196 74Q217 100 244 174Q248 187 258 187Q273 187 266 169Q245 101 220 62Q194 22 169 6Q144 -10 122 -10Z"/><path id="i173" d="M53 13 148 412Q153 434 150 446Q146 459 131 459Q113 459 92 432Q70 406 43 332Q39 319 29 319Q14 319 21 337Q43 406 68 445Q92 484 117 500Q142 516 163 516Q196 516 210 492Q224 467 211 411L186 303Q185 296 189 295Q193 294 196 300Q235 381 271 428Q307 476 339 496Q371 516 397 516Q434 516 451 486Q468 456 451 394L375 104Q368 76 374 62Q380 48 396 48Q416 48 436 74Q455 101 476 175Q479 186 489 186Q497 186 498 180Q500 174 498 166Q479 98 457 60Q435 21 412 6Q390 -9 367 -9Q331 -9 313 21Q295 51 311 114L388 404Q399 443 392 458Q384 473 370 473Q348 473 320 446Q292 418 263 370Q234 323 206 263Q178 203 156 138Q133 73 119 11Q116 0 105 0H64Q50 0 53 13Z"/><path id="i189" d="M-76 -205Q-89 -205 -89 -194Q-89 -184 -73 -182L-59 -180Q-39 -177 -30 -168Q-20 -160 -15 -138L118 436Q120 444 116 448Q111 453 103 448Q93 443 84 438Q75 432 66 426Q57 420 51 422Q45 425 45 432Q45 439 55 446Q83 465 113 479Q130 487 134 505L147 562Q152 583 173 583H191Q203 583 209 576Q215 569 212 556L205 527Q202 510 218 513Q241 516 262 516Q336 516 383 474Q430 432 430 345Q430 277 405 214Q380 150 339 100Q298 50 249 20Q200 -9 151 -9Q124 -9 100 2Q85 9 82 -6L52 -138Q47 -160 52 -167Q58 -174 77 -177L103 -181Q121 -184 121 -193Q121 -205 104 -205H-76ZM110 115Q92 16 153 16Q188 16 224 46Q260 75 291 124Q322 174 341 236Q360 298 360 363Q360 430 331 460Q302 489 246 489Q196 489 189 455L110 115Z"/><path id="i222" d="M-27 -215Q-65 -215 -86 -196Q-107 -176 -107 -148Q-107 -127 -96 -116Q-85 -106 -72 -106Q-53 -106 -45 -116Q-37 -126 -33 -140Q-29 -153 -20 -163Q-12 -173 7 -173Q44 -173 80 -144Q116 -114 139 -62Q162 -11 159 53L144 412Q143 438 135 448Q127 459 115 459Q93 459 73 432Q53 406 40 332Q37 319 27 319Q13 319 16 337Q28 406 50 445Q71 484 96 500Q120 516 141 516Q172 516 190 494Q208 473 210 421L224 37Q224 30 228 28Q233 27 237 33Q272 82 300 134Q329 187 346 238Q363 289 363 332Q363 374 354 398Q345 423 336 440Q326 457 326 477Q326 516 360 516Q408 516 408 410Q408 352 388 284Q368 215 334 144Q299 74 254 10Q210 -54 162 -105Q113 -156 64 -186Q16 -215 -27 -215Z"/><path id="i284" d="M62 -9Q41 -9 28 4Q15 18 15 38Q15 64 33 80Q51 96 71 96Q91 96 104 82Q118 69 118 49Q118 23 100 7Q82 -9 62 -9Z"/><path id="m124" d="M92 0V730H318Q383 730 432 704Q481 677 508 630Q535 583 535 520Q535 446 496 393Q458 340 392 320L545 0H439L299 310H182V0H92ZM182 391H318Q374 391 408 426Q442 462 442 520Q442 579 408 614Q374 649 318 649H182V391Z"/><path id="m128" d="M304 -10Q232 -10 180 14Q129 38 101 83Q73 128 72 190H162Q162 135 200 103Q237 71 304 71Q367 71 402 102Q438 133 438 188Q438 232 414 265Q391 298 347 311L248 342Q173 365 132 419Q92 473 92 546Q92 605 118 648Q145 692 193 716Q241 741 306 741Q402 741 460 688Q518 634 519 545H429Q429 599 396 630Q364 660 305 660Q247 660 214 632Q182 604 182 554Q182 509 206 476Q230 443 275 429L375 397Q448 374 488 319Q528 264 528 190Q528 130 500 85Q472 40 422 15Q371 -10 304 -10Z"/><path id="m136" d="M255 0V649H55V731H545V649H345V0H255Z"/><path id="m141" d="M300 -10Q198 -10 144 46Q90 103 90 200V730H180V200Q180 140 210 105Q239 70 300 70Q360 70 390 105Q420 140 420 200V730H510V200Q510 102 456 46Q403 -10 300 -10Z"/><path id="m161" d="M109 0 25 730H111L166 190Q168 168 170 144Q172 121 174 100Q175 79 175 65Q177 79 178 100Q180 121 182 144Q185 168 188 190L256 730H349L411 190Q414 168 416 144Q419 121 422 100Q424 79 425 65Q426 79 428 100Q429 121 432 144Q434 168 436 190L493 730H575L489 0H376L314 550Q312 573 310 595Q307 617 305 636Q303 655 302 667Q301 655 298 636Q296 617 294 595Q292 573 289 550L222 0H109Z"/><path id="m180" d="M252 -10Q165 -10 115 34Q65 79 65 155Q65 232 115 276Q165 320 250 320H420V375Q420 426 390 454Q359 481 303 481Q254 481 221 460Q188 440 183 405H93Q102 476 160 518Q218 560 305 560Q400 560 455 511Q510 462 510 378V0H422V105H407L422 120Q422 60 376 25Q329 -10 252 -10ZM274 61Q338 61 379 93Q420 125 420 175V253H252Q207 253 181 228Q155 203 155 160Q155 114 186 88Q218 61 274 61Z"/><path id="m212" d="M268 -10Q186 -10 136 45Q85 100 85 194V355Q85 450 135 505Q185 560 268 560Q336 560 377 523Q418 486 418 424L400 445H420L418 570V730H508V0H418V105H400L418 126Q418 63 377 26Q336 -10 268 -10ZM298 68Q354 68 386 103Q418 138 418 200V350Q418 412 386 447Q354 482 298 482Q241 482 208 448Q175 414 175 350V200Q175 136 208 102Q241 68 298 68Z"/><path id="m216" d="M300 -10Q235 -10 186 16Q138 42 112 90Q85 137 85 200V350Q85 414 112 461Q138 508 186 534Q235 560 300 560Q365 560 414 534Q462 508 488 461Q515 414 515 350V253H173V200Q173 135 206 100Q239 66 300 66Q352 66 384 84Q416 103 423 140H513Q504 71 446 30Q387 -10 300 -10ZM427 313V350Q427 415 394 450Q362 485 300 485Q239 485 206 450Q173 415 173 350V321H434L427 313Z"/><path id="m243" d="M92 0V730H182V550V445H201L182 424Q182 489 221 524Q260 560 329 560Q412 560 461 509Q510 458 510 370V0H420V360Q420 419 388 452Q357 484 303 484Q247 484 214 449Q182 414 182 350V0H92Z"/><path id="m246" d="M85 0V82H280V468H110V550H370V82H555V0H85ZM315 649Q282 649 263 666Q244 683 244 712Q244 742 263 760Q282 777 315 777Q348 777 367 760Q386 742 386 712Q386 683 367 666Q348 649 315 649Z"/><path id="m271" d="M66 0V550H145V484H163L149 460Q149 506 174 533Q198 560 240 560Q286 560 311 526Q336 492 336 430L309 484H351L332 460Q332 506 358 533Q383 560 425 560Q477 560 506 521Q534 482 534 418V0H451V419Q451 453 436 472Q422 491 394 491Q367 491 352 472Q336 454 336 420V0H264V419Q264 454 248 472Q233 491 205 491Q177 491 163 472Q149 454 149 420V0H66Z"/><path id="m272" d="M92 0V550H182V445H201L182 424Q182 489 221 524Q260 560 329 560Q412 560 461 509Q510 458 510 370V0H420V360Q420 419 388 450Q357 482 303 482Q247 482 214 448Q182 414 182 350V0H92Z"/><path id="m305" d="M92 -180V550H182V445H200L182 424Q182 487 224 524Q265 560 333 560Q416 560 466 506Q515 451 515 356V195Q515 132 492 86Q470 40 430 15Q389 -10 333 -10Q266 -10 224 27Q182 64 182 126L200 105H180L182 -20V-180H92ZM303 68Q360 68 392 102Q425 136 425 200V350Q425 414 392 448Q360 482 303 482Q248 482 215 447Q182 412 182 350V200Q182 138 215 103Q248 68 303 68Z"/><path id="m308" d="M111 0V550H199V445H220L191 380Q191 469 230 514Q268 560 344 560Q431 560 482 506Q534 451 534 358V325H444V350Q444 415 412 450Q381 484 323 484Q266 484 234 449Q201 414 201 350V0H111Z"/><path id="m320" d="M360 0Q289 0 250 38Q210 76 210 145V468H55V550H210V705H300V550H520V468H300V145Q300 82 360 82H510V0H360Z"/><path id="m33" d="M92 0V730H281Q352 730 404 703Q455 676 484 627Q512 578 512 511V220Q512 153 484 104Q455 54 404 27Q352 0 281 0H92ZM182 80H281Q347 80 384 117Q422 154 422 220V511Q422 576 384 613Q347 650 281 650H182V80Z"/><path id="m351" d="M178 -180 259 34 55 550H155L283 210Q290 193 296 170Q302 146 306 130Q310 146 316 170Q322 193 328 210L448 550H545L274 -180H178Z"/><path id="m37" d="M100 0V730H520V648H189V422H485V341H189V82H520V0H100Z"/><path id="m55" d="M95 0V731H525V649H183V406H499V324H185V0H95Z"/><path id="m571" d="M300 -10Q262 -10 240 12Q217 34 217 71Q217 110 240 133Q262 156 300 156Q338 156 360 133Q383 110 383 71Q383 34 360 12Q338 -10 300 -10Z"/><path id="m580" d="M300 260Q262 260 240 282Q217 304 217 341Q217 380 240 403Q262 426 300 426Q338 426 360 403Q383 380 383 341Q383 304 360 282Q338 260 300 260Z"/><path id="m593" d="M205 -110V830H450V750H295V-30H450V-110H205Z"/><path id="m594" d="M150 -110V-30H305V750H150V830H395V-110H150Z"/><path id="m599" d="M140 290V370H460V290H140Z"/><path id="m66" d="M105 0V82H254V648H105V730H495V648H346V82H495V0H105Z"/><path id="m746" d="M233 35 395 240Q405 253 418 266Q431 278 440 285V294Q427 293 407 292Q387 290 370 290H40V370H370Q387 370 407 368Q427 367 440 365V374Q433 380 420 393Q408 406 395 421L233 625H338L570 330L339 35H233Z"/><path id="m89" d="M90 0V730H210L433 105Q431 130 428 166Q426 203 424 244Q423 284 423 320V730H510V0H390L168 625Q170 601 172 564Q174 528 176 488Q177 447 177 410V0H90Z"/><path id="m95" d="M300 -10Q234 -10 186 15Q139 40 114 88Q88 135 88 200V530Q88 596 114 643Q139 690 186 715Q234 740 300 740Q366 740 414 715Q461 690 486 643Q512 596 512 531V200Q512 135 486 88Q461 40 414 15Q366 -10 300 -10ZM300 71Q359 71 390 104Q422 138 422 200V530Q422 592 390 626Q359 659 300 659Q242 659 210 626Q178 592 178 530V200Q178 138 210 104Q242 71 300 71Z"/><path id="m964" d="M230 -10Q148 -10 102 34Q55 78 55 155V280Q55 333 82 370Q110 406 161 421L154 431Q123 473 109 509Q95 545 95 581Q95 629 118 665Q140 701 180 720Q221 740 275 740Q333 740 376 719Q418 698 441 660Q464 622 464 569H374Q374 598 362 619Q350 640 328 651Q306 662 275 662Q248 662 228 652Q207 642 196 624Q185 605 185 579Q185 554 196 525Q206 496 225 470L397 233L468 360H562L449 161L566 0H467L404 87Q330 -10 230 -10ZM235 70Q269 70 300 92Q332 115 354 155L207 358Q176 353 160 333Q145 313 145 280V155Q145 115 168 92Q192 70 235 70Z"/></defs><rect x="3" y="3" width="204" height="130" fill="#000"/><rect x="0" y="0" width="204" height="130" fill="#fff"/><rect x="0" y="0" width="204" height="22" fill="#e8e8e8"/><rect x="0" y="3" width="204" height="15" fill="url(#stripes)" opacity="0.22"/><rect x="43.76" y="1" width="116.48" height="19" fill="#e8e8e8"/><g transform="matrix(0.012 0 0 -0.012 53.76 15)" fill="#000"><use href="#m243" x="0"/><use href="#m180" x="620"/><use href="#m305" x="1240"/><use href="#m305" x="1860"/><use href="#m351" x="2480"/><use href="#m246" x="3100"/><use href="#m272" x="3720"/><use href="#m599" x="4340"/><use href="#m180" x="4960"/><use href="#m246" x="5580"/><use href="#m571" x="6200"/><use href="#m271" x="6820"/><use href="#m212" x="7440"/></g><rect x="7.5" y="5.5" width="11" height="11" fill="#fff" stroke="#000"/><rect x="185.5" y="5.5" width="11" height="11" fill="#fff" stroke="#000"/><rect x="187.5" y="7.5" width="5" height="5" fill="#fff" stroke="#000"/><rect x="0" y="21" width="204" height="1" fill="#000"/><rect x="0" y="22" width="204" height="3" fill="#800080"/><rect x="12" y="41" width="10" height="9" fill="#f0c0d0" stroke="#000"/><g transform="matrix(0.021 0 0 -0.021 29 53)" fill="#000"><use href="#i151" x="0"/><use href="#i115" x="476"/><use href="#i189" x="950"/><use href="#i189" x="1400"/><use href="#i222" x="1850"/><use href="#i153" x="2268"/><use href="#i173" x="2556"/><use href="#i284" x="3077"/><use href="#i115" x="3296"/><use href="#i153" x="3770"/></g><g transform="matrix(0.0105 0 0 -0.0105 12 70)" fill="#555"><use href="#m95" x="0"/><use href="#m161" x="680"/><use href="#m89" x="1360"/><use href="#m124" x="2720"/><use href="#m964" x="3400"/><use href="#m33" x="4080"/><use href="#m128" x="5440"/><use href="#m136" x="6120"/><use href="#m141" x="6800"/><use href="#m33" x="7480"/><use href="#m66" x="8160"/><use href="#m95" x="8840"/><use href="#m580" x="10200"/><use href="#m55" x="11560"/><use href="#m95" x="12240"/><use href="#m141" x="12920"/><use href="#m89" x="13600"/><use href="#m33" x="14280"/><use href="#m37" x="14960"/><use href="#m124" x="15640"/></g><path d="M12 104H192" stroke="#ccc" stroke-dasharray="1 2"/><g transform="matrix(0.0105 0 0 -0.0105 12 120)" fill="#008000"><use href="#m593" x="0"/><use href="#m216" x="600"/><use href="#m272" x="1200"/><use href="#m320" x="1800"/><use href="#m216" x="2400"/><use href="#m308" x="3000"/><use href="#m746" x="4200"/><use href="#m594" x="4800"/></g><rect x="0.5" y="0.5" width="203" height="129" fill="none" stroke="#000"/></svg>
