<svg xmlns="http://www.w3.org/2000/svg" width="211.2" height="30" viewBox="0 0 211.2 30" role="img" aria-label="$ ls ~/projects/production"><title>$ ls ~/projects/production</title><defs><path id="m206" d="M304 -10Q238 -10 188 15Q139 40 112 88Q85 135 85 200V350Q85 416 112 463Q139 510 188 535Q238 560 304 560Q399 560 457 509Q515 458 518 370H428Q425 423 392 452Q360 480 304 480Q245 480 210 446Q175 413 175 351V200Q175 138 210 104Q245 70 304 70Q360 70 392 99Q425 128 428 180H518Q515 92 457 41Q399 -10 304 -10Z"/><path id="m212" d="M268 -10Q186 -10 136 45Q85 100 85 194V355Q85 450 135 505Q185 560 268 560Q336 560 377 523Q418 486 418 424L400 445H420L418 570V730H508V0H418V105H400L418 126Q418 63 377 26Q336 -10 268 -10ZM298 68Q354 68 386 103Q418 138 418 200V350Q418 412 386 447Q354 482 298 482Q241 482 208 448Q175 414 175 350V200Q175 136 208 102Q241 68 298 68Z"/><path id="m216" d="M300 -10Q235 -10 186 16Q138 42 112 90Q85 137 85 200V350Q85 414 112 461Q138 508 186 534Q235 560 300 560Q365 560 414 534Q462 508 488 461Q515 414 515 350V253H173V200Q173 135 206 100Q239 66 300 66Q352 66 384 84Q416 103 423 140H513Q504 71 446 30Q387 -10 300 -10ZM427 313V350Q427 415 394 450Q362 485 300 485Q239 485 206 450Q173 415 173 350V321H434L427 313Z"/><path id="m246" d="M85 0V82H280V468H110V550H370V82H555V0H85ZM315 649Q282 649 263 666Q244 683 244 712Q244 742 263 760Q282 777 315 777Q348 777 367 760Q386 742 386 712Q386 683 367 666Q348 649 315 649Z"/><path id="m259" d="M85 -180V-97H214Q276 -97 310 -64Q345 -30 345 31V468H115V550H435V31Q435 -66 375 -123Q315 -180 214 -180H85ZM385 649Q352 649 333 666Q314 683 314 712Q314 742 333 760Q352 777 385 777Q418 777 437 760Q456 742 456 712Q456 683 437 666Q418 649 385 649Z"/><path id="m265" d="M375 0Q327 0 291 19Q255 38 235 73Q215 108 215 155V648H30V730H305V155Q305 121 324 102Q343 82 375 82H550V0H375Z"/><path id="m272" d="M92 0V550H182V445H201L182 424Q182 489 221 524Q260 560 329 560Q412 560 461 509Q510 458 510 370V0H420V360Q420 419 388 450Q357 482 303 482Q247 482 214 448Q182 414 182 350V0H92Z"/><path id="m279" d="M300 -8Q234 -8 186 17Q138 42 112 90Q85 137 85 202V348Q85 414 112 461Q138 508 186 533Q234 558 300 558Q366 558 414 533Q462 508 488 461Q515 414 515 349V202Q515 137 488 90Q462 42 414 17Q366 -8 300 -8ZM300 72Q359 72 392 105Q425 138 425 202V348Q425 412 392 445Q359 478 300 478Q242 478 208 445Q175 412 175 348V202Q175 138 208 105Q242 72 300 72Z"/><path id="m305" d="M92 -180V550H182V445H200L182 424Q182 487 224 524Q265 560 333 560Q416 560 466 506Q515 451 515 356V195Q515 132 492 86Q470 40 430 15Q389 -10 333 -10Q266 -10 224 27Q182 64 182 126L200 105H180L182 -20V-180H92ZM303 68Q360 68 392 102Q425 136 425 200V350Q425 414 392 448Q360 482 303 482Q248 482 215 447Q182 412 182 350V200Q182 138 215 103Q248 68 303 68Z"/><path id="m308" d="M111 0V550H199V445H220L191 380Q191 469 230 514Q268 560 344 560Q431 560 482 506Q534 451 534 358V325H444V350Q444 415 412 450Q381 484 323 484Q266 484 234 449Q201 414 201 350V0H111Z"/><path id="m312" d="M283 -8Q227 -8 186 10Q144 27 120 59Q95 91 90 135H180Q186 106 212 89Q239 72 283 72H325Q378 72 404 94Q430 115 430 151Q430 186 406 206Q383 227 337 234L263 246Q182 260 142 296Q103 333 103 403Q103 477 150 518Q197 558 291 558H329Q408 558 456 521Q504 484 514 421H424Q418 447 394 462Q370 478 329 478H291Q240 478 216 459Q193 440 193 402Q193 368 213 352Q233 336 276 329L350 317Q439 303 480 265Q520 227 520 155Q520 79 472 36Q423 -8 325 -8H283Z"/><path id="m320" d="M360 0Q289 0 250 38Q210 76 210 145V468H55V550H210V705H300V550H520V468H300V145Q300 82 360 82H510V0H360Z"/><path id="m325" d="M299 -10Q204 -10 147 46Q90 103 90 200V550H180V200Q180 138 212 104Q244 69 299 69Q355 69 388 104Q420 138 420 200V550H510V200Q510 103 452 46Q394 -10 299 -10Z"/><path id="m585" d="M75 -110 430 830H525L170 -110H75Z"/><path id="m687" d="M275 -140V-9Q181 -1 128 52Q74 104 72 190H162Q162 141 192 110Q221 79 275 72V334L248 342Q173 365 132 419Q92 473 92 546Q92 626 142 678Q191 730 275 738V870H335V739Q418 731 468 679Q518 627 519 545H429Q429 592 404 622Q380 651 335 658V410L375 397Q448 374 488 319Q528 264 528 190Q528 108 476 54Q423 0 335 -9V-140H275ZM335 72Q384 80 411 110Q438 140 438 188Q438 232 414 265Q391 298 347 311L335 315V72ZM275 389V658Q231 651 206 624Q182 597 182 554Q182 502 214 466Q246 431 306 422L275 389Z"/><path id="m719" d="M65 255V325Q65 384 101 420Q137 455 195 455Q232 455 258 442Q284 429 302 410Q321 390 336 370Q351 351 367 338Q383 325 403 325Q426 325 438 339Q450 353 450 380V450H535V380Q535 322 500 286Q464 250 405 250Q368 250 342 263Q316 276 298 296Q279 315 264 334Q249 354 233 367Q217 380 197 380Q175 380 162 366Q150 352 150 325V255H65Z"/></defs><rect x="0.5" y="0.5" width="210.2" height="29" fill="#0a0907" stroke="#2a2720"/><g transform="matrix(0.012 0 0 -0.012 12 19.5)" fill="#ff5b1f"><use href="#m687" x="0"/></g><g transform="matrix(0.012 0 0 -0.012 19.2 19.5)" fill="#c4baa3"><use href="#m265" x="600"/><use href="#m312" x="1200"/><use href="#m719" x="2400"/><use href="#m585" x="3000"/><use href="#m305" x="3600"/><use href="#m308" x="4200"/><use href="#m279" x="4800"/><use href="#m259" x="5400"/><use href="#m216" x="6000"/><use href="#m206" x="6600"/><use href="#m320" x="7200"/><use href="#m312" x="7800"/><use href="#m585" x="8400"/><use href="#m305" x="9000"/><use href="#m308" x="9600"/><use href="#m279" x="10200"/><use href="#m212" x="10800"/><use href="#m325" x="11400"/><use href="#m206" x="12000"/><use href="#m320" x="12600"/><use href="#m246" x="13200"/><use href="#m279" x="13800"/><use href="#m272" x="14400"/></g></svg>
