<svg xmlns="http://www.w3.org/2000/svg" width="443" height="179" viewBox="0 0 443 179" role="img" aria-label="glam.ai — ML engineering &amp; team lead (ex-) · 4M+ users. Identity-preserving photoshoot, multi-angle, trend looks, fix-everything. Five chained Qwen pipelines in production."><title>glam.ai — ML engineering &amp; team lead (ex-) · 4M+ users. Identity-preserving photoshoot, multi-angle, trend looks, fix-everything. Five chained Qwen pipelines in production.</title><defs><pattern id="stripes" width="4" height="2" patternUnits="userSpaceOnUse"><rect width="4" height="1" fill="#000"/></pattern><path id="i115" d="M89 -9Q53 -9 33 22Q13 53 13 113Q13 170 29 228Q45 285 73 337Q101 389 136 429Q172 469 212 492Q251 516 290 516Q309 516 326 508Q343 501 354 485Q360 476 366 476Q372 476 378 485Q389 501 396 506Q403 510 409 510Q422 510 419 496L330 113Q315 48 350 48Q373 48 392 79Q410 110 429 175Q432 186 442 186Q449 186 451 180Q453 174 451 166Q432 72 400 32Q368 -9 323 -9Q284 -9 268 24Q251 57 264 114L277 169Q279 176 274 177Q270 178 267 172Q212 71 170 31Q127 -9 89 -9ZM114 42Q138 42 167 71Q196 100 224 146Q253 192 277 245Q301 298 316 347Q330 396 330 430Q330 491 287 491Q261 491 232 468Q203 444 176 404Q150 364 128 314Q107 263 94 208Q81 154 81 102Q81 67 90 54Q98 42 114 42Z"/><path id="i147" d="M93 -216Q14 -216 -27 -187Q-68 -158 -68 -118Q-68 -83 -40 -50Q-13 -16 61 27Q72 33 74 40Q75 48 64 55Q36 73 30 97Q25 121 43 131L119 175Q129 180 130 188Q130 195 119 201Q92 217 78 246Q65 276 65 311Q65 365 92 412Q118 458 162 487Q207 516 262 516Q285 516 301 510Q313 506 319 518Q336 555 362 576Q389 598 418 598Q439 598 450 587Q462 576 462 557Q462 538 451 526Q440 514 423 514Q410 514 404 519Q397 524 392 529Q387 534 376 534Q354 534 341 509Q337 500 339 492Q341 485 347 477Q373 443 373 391Q373 344 352 302Q332 259 296 230Q261 200 215 190Q197 186 182 180Q168 175 146 161L106 137Q91 128 98 114Q105 101 137 89L223 57Q279 37 300 8Q322 -21 322 -60Q322 -108 290 -143Q259 -178 207 -197Q155 -216 93 -216ZM132 293Q132 247 146 226Q159 206 184 206Q216 206 244 236Q271 265 288 312Q305 358 305 408Q305 458 292 476Q279 495 253 495Q222 495 194 466Q166 436 149 390Q132 344 132 293ZM104 -191Q143 -191 177 -178Q211 -165 232 -141Q254 -117 254 -84Q254 -51 238 -30Q221 -8 173 10L154 17Q136 24 118 22Q100 20 84 12Q30 -18 11 -44Q-8 -70 -8 -101Q-8 -138 19 -164Q46 -191 104 -191Z"/><path id="i153" d="M204 605Q185 605 172 618Q160 632 160 651Q160 678 176 694Q193 710 214 710Q234 710 248 698Q261 685 261 665Q261 637 244 621Q227 605 204 605ZM122 -10Q89 -10 75 14Q61 39 74 95L148 412Q153 434 150 446Q146 459 131 459Q113 459 92 432Q70 406 43 332Q39 319 29 319Q14 319 21 337Q43 406 68 445Q92 484 117 500Q142 516 163 516Q198 516 212 492Q226 467 213 411L139 94Q134 72 138 60Q141 47 156 47Q174 47 196 74Q217 100 244 174Q248 187 258 187Q273 187 266 169Q245 101 220 62Q194 22 169 6Q144 -10 122 -10Z"/><path id="i167" d="M74 -10Q41 -10 27 14Q13 39 26 95L153 640Q158 658 154 665Q149 672 135 673L105 676Q90 677 92 689Q94 698 106 700Q142 706 170 714Q198 723 215 737Q223 743 230 743Q242 743 239 728L91 94Q86 72 90 60Q93 47 108 47Q126 47 148 74Q169 100 196 174Q200 187 210 187Q225 187 218 169Q197 101 172 62Q146 22 121 6Q96 -10 74 -10Z"/><path id="i172" d="M591 -9Q555 -9 537 21Q519 51 535 114L612 404Q623 443 616 458Q608 473 594 473Q574 473 548 446Q522 418 494 371Q465 324 438 264Q411 204 388 139Q365 74 350 11Q347 0 336 0H297Q283 0 286 13L378 404Q387 443 380 458Q374 473 360 473Q341 473 315 446Q289 418 261 371Q233 324 206 264Q179 204 156 139Q133 74 119 11Q116 0 105 0H64Q50 0 53 13L148 412Q153 434 150 446Q146 459 131 459Q113 459 92 432Q70 406 43 332Q39 319 29 319Q14 319 21 337Q43 406 68 445Q92 484 117 500Q142 516 163 516Q196 516 210 492Q224 467 211 411L186 303Q185 296 189 295Q193 294 196 300Q254 420 301 468Q348 516 387 516Q424 516 440 486Q455 456 441 394L420 303Q419 296 423 295Q427 294 430 300Q468 381 502 428Q535 476 565 496Q595 516 621 516Q658 516 675 486Q692 456 675 394L599 104Q592 76 598 62Q604 48 620 48Q640 48 660 74Q679 101 700 175Q703 186 713 186Q721 186 722 180Q724 174 722 166Q703 98 681 60Q659 21 636 6Q614 -9 591 -9Z"/><path id="i284" d="M62 -9Q41 -9 28 4Q15 18 15 38Q15 64 33 80Q51 96 71 96Q91 96 104 82Q118 69 118 49Q118 23 100 7Q82 -9 62 -9Z"/><path id="m1" d="M50 0 240 730H361L550 0H459L411 194H190L142 0H50ZM208 270H392L336 495Q320 559 311 602Q302 645 300 658Q298 645 289 602Q280 559 264 496L208 270Z"/><path id="m124" d="M92 0V730H318Q383 730 432 704Q481 677 508 630Q535 583 535 520Q535 446 496 393Q458 340 392 320L545 0H439L299 310H182V0H92ZM182 391H318Q374 391 408 426Q442 462 442 520Q442 579 408 614Q374 649 318 649H182V391Z"/><path id="m128" d="M304 -10Q232 -10 180 14Q129 38 101 83Q73 128 72 190H162Q162 135 200 103Q237 71 304 71Q367 71 402 102Q438 133 438 188Q438 232 414 265Q391 298 347 311L248 342Q173 365 132 419Q92 473 92 546Q92 605 118 648Q145 692 193 716Q241 741 306 741Q402 741 460 688Q518 634 519 545H429Q429 599 396 630Q364 660 305 660Q247 660 214 632Q182 604 182 554Q182 509 206 476Q230 443 275 429L375 397Q448 374 488 319Q528 264 528 190Q528 130 500 85Q472 40 422 15Q371 -10 304 -10Z"/><path id="m136" d="M255 0V649H55V731H545V649H345V0H255Z"/><path id="m141" d="M300 -10Q198 -10 144 46Q90 103 90 200V730H180V200Q180 140 210 105Q239 70 300 70Q360 70 390 105Q420 140 420 200V730H510V200Q510 102 456 46Q403 -10 300 -10Z"/><path id="m166" d="M40 0 250 370 51 730H155L268 514Q277 497 286 478Q296 458 302 447Q307 458 316 478Q326 497 335 514L450 730H549L350 376L560 0H457L332 232Q323 249 314 268Q304 288 299 300Q294 288 284 269Q275 250 266 233L140 0H40Z"/><path id="m180" d="M252 -10Q165 -10 115 34Q65 79 65 155Q65 232 115 276Q165 320 250 320H420V375Q420 426 390 454Q359 481 303 481Q254 481 221 460Q188 440 183 405H93Q102 476 160 518Q218 560 305 560Q400 560 455 511Q510 462 510 378V0H422V105H407L422 120Q422 60 376 25Q329 -10 252 -10ZM274 61Q338 61 379 93Q420 125 420 175V253H252Q207 253 181 228Q155 203 155 160Q155 114 186 88Q218 61 274 61Z"/><path id="m216" d="M300 -10Q235 -10 186 16Q138 42 112 90Q85 137 85 200V350Q85 414 112 461Q138 508 186 534Q235 560 300 560Q365 560 414 534Q462 508 488 461Q515 414 515 350V253H173V200Q173 135 206 100Q239 66 300 66Q352 66 384 84Q416 103 423 140H513Q504 71 446 30Q387 -10 300 -10ZM427 313V350Q427 415 394 450Q362 485 300 485Q239 485 206 450Q173 415 173 350V321H434L427 313Z"/><path id="m236" d="M161 -180V-98H336Q378 -98 398 -79Q417 -60 417 -20V50L419 150H401L418 165Q418 105 378 70Q338 35 271 35Q186 35 137 90Q88 146 88 240V356Q88 450 137 505Q186 560 271 560Q338 560 378 525Q418 490 418 430L401 445H418V550H507V-20Q507 -94 462 -137Q416 -180 335 -180H161ZM298 113Q354 113 386 148Q418 183 418 245V350Q418 412 386 447Q354 482 298 482Q241 482 210 448Q178 414 178 350V245Q178 181 210 147Q241 113 298 113Z"/><path id="m243" d="M92 0V730H182V550V445H201L182 424Q182 489 221 524Q260 560 329 560Q412 560 461 509Q510 458 510 370V0H420V360Q420 419 388 452Q357 484 303 484Q247 484 214 449Q182 414 182 350V0H92Z"/><path id="m246" d="M85 0V82H280V468H110V550H370V82H555V0H85ZM315 649Q282 649 263 666Q244 683 244 712Q244 742 263 760Q282 777 315 777Q348 777 367 760Q386 742 386 712Q386 683 367 666Q348 649 315 649Z"/><path id="m262" d="M95 0V730H185V323H291L451 550H554L369 288L557 0H452L292 245H185V0H95Z"/><path id="m265" d="M375 0Q327 0 291 19Q255 38 235 73Q215 108 215 155V648H30V730H305V155Q305 121 324 102Q343 82 375 82H550V0H375Z"/><path id="m271" d="M66 0V550H145V484H163L149 460Q149 506 174 533Q198 560 240 560Q286 560 311 526Q336 492 336 430L309 484H351L332 460Q332 506 358 533Q383 560 425 560Q477 560 506 521Q534 482 534 418V0H451V419Q451 453 436 472Q422 491 394 491Q367 491 352 472Q336 454 336 420V0H264V419Q264 454 248 472Q233 491 205 491Q177 491 163 472Q149 454 149 420V0H66Z"/><path id="m272" d="M92 0V550H182V445H201L182 424Q182 489 221 524Q260 560 329 560Q412 560 461 509Q510 458 510 370V0H420V360Q420 419 388 450Q357 482 303 482Q247 482 214 448Q182 414 182 350V0H92Z"/><path id="m279" d="M300 -8Q234 -8 186 17Q138 42 112 90Q85 137 85 202V348Q85 414 112 461Q138 508 186 533Q234 558 300 558Q366 558 414 533Q462 508 488 461Q515 414 515 349V202Q515 137 488 90Q462 42 414 17Q366 -8 300 -8ZM300 72Q359 72 392 105Q425 138 425 202V348Q425 412 392 445Q359 478 300 478Q242 478 208 445Q175 412 175 348V202Q175 138 208 105Q242 72 300 72Z"/><path id="m305" d="M92 -180V550H182V445H200L182 424Q182 487 224 524Q265 560 333 560Q416 560 466 506Q515 451 515 356V195Q515 132 492 86Q470 40 430 15Q389 -10 333 -10Q266 -10 224 27Q182 64 182 126L200 105H180L182 -20V-180H92ZM303 68Q360 68 392 102Q425 136 425 200V350Q425 414 392 448Q360 482 303 482Q248 482 215 447Q182 412 182 350V200Q182 138 215 103Q248 68 303 68Z"/><path id="m308" d="M111 0V550H199V445H220L191 380Q191 469 230 514Q268 560 344 560Q431 560 482 506Q534 451 534 358V325H444V350Q444 415 412 450Q381 484 323 484Q266 484 234 449Q201 414 201 350V0H111Z"/><path id="m320" d="M360 0Q289 0 250 38Q210 76 210 145V468H55V550H210V705H300V550H520V468H300V145Q300 82 360 82H510V0H360Z"/><path id="m33" d="M92 0V730H281Q352 730 404 703Q455 676 484 627Q512 578 512 511V220Q512 153 484 104Q455 54 404 27Q352 0 281 0H92ZM182 80H281Q347 80 384 117Q422 154 422 220V511Q422 576 384 613Q347 650 281 650H182V80Z"/><path id="m345" d="M123 0 35 550H115L170 160Q173 138 176 112Q180 87 182 70Q184 87 188 112Q193 138 196 160L257 550H343L404 160Q407 138 412 112Q416 87 418 70Q420 87 424 112Q429 138 432 160L489 550H565L473 0H374L315 380Q311 408 306 436Q301 464 299 480Q297 464 293 436Q289 408 284 380L222 0H123Z"/><path id="m351" d="M178 -180 259 34 55 550H155L283 210Q290 193 296 170Q302 146 306 130Q310 146 316 170Q322 193 328 210L448 550H545L274 -180H178Z"/><path id="m37" d="M100 0V730H520V648H189V422H485V341H189V82H520V0H100Z"/><path id="m540" d="M410 0V160H80V301L369 730H467L170 282V242H410V420H500V0H410Z"/><path id="m56" d="M304 -10Q238 -10 190 15Q141 40 114 88Q88 135 88 200V530Q88 596 114 643Q141 690 190 715Q238 740 304 740Q370 740 418 714Q466 689 492 642Q518 595 518 530H428Q428 592 396 626Q363 659 304 659Q245 659 212 626Q178 593 178 531V200Q178 138 212 104Q245 70 304 70Q363 70 396 104Q428 138 428 200V290H280V372H518V200Q518 136 492 88Q466 41 418 16Q370 -10 304 -10Z"/><path id="m571" d="M300 -10Q262 -10 240 12Q217 34 217 71Q217 110 240 133Q262 156 300 156Q338 156 360 133Q383 110 383 71Q383 34 360 12Q338 -10 300 -10Z"/><path id="m580" d="M300 260Q262 260 240 282Q217 304 217 341Q217 380 240 403Q262 426 300 426Q338 426 360 403Q383 380 383 341Q383 304 360 282Q338 260 300 260Z"/><path id="m585" d="M75 -110 430 830H525L170 -110H75Z"/><path id="m589" d="M485 -120Q343 -85 264 18Q185 121 185 270V450Q185 548 222 628Q258 707 326 762Q393 817 485 840V755Q421 740 374 698Q327 655 301 592Q275 529 275 450V270Q275 193 300 130Q326 67 374 26Q421 -16 485 -31V-120Z"/><path id="m590" d="M115 -120V-31Q180 -16 227 26Q274 67 300 130Q325 193 325 270V450Q325 529 299 592Q273 655 226 698Q179 740 115 755V840Q208 817 275 762Q342 707 378 628Q415 548 415 450V270Q415 121 336 18Q257 -85 115 -120Z"/><path id="m593" d="M205 -110V830H450V750H295V-30H450V-110H205Z"/><path id="m594" d="M150 -110V-30H305V750H150V830H395V-110H150Z"/><path id="m599" d="M140 290V370H460V290H140Z"/><path id="m66" d="M105 0V82H254V648H105V730H495V648H346V82H495V0H105Z"/><path id="m707" d="M256 95V290H65V370H256V565H344V370H535V290H344V95H256Z"/><path id="m746" d="M233 35 395 240Q405 253 418 266Q431 278 440 285V294Q427 293 407 292Q387 290 370 290H40V370H370Q387 370 407 368Q427 367 440 365V374Q433 380 420 393Q408 406 395 421L233 625H338L570 330L339 35H233Z"/><path id="m82" d="M115 0V730H205V82H535V0H115Z"/><path id="m822" d="M150 210 460 360 150 510V210Z"/><path id="m88" d="M76 0V730H194L270 494Q281 462 290 430Q299 399 303 382Q308 399 316 430Q324 462 334 495L406 730H524V0H436V265Q436 309 439 365Q442 421 447 480Q452 538 458 592Q463 645 467 685L349 320H254L135 685Q140 646 145 594Q150 543 154 486Q158 428 161 371Q164 314 164 265V0H76Z"/><path id="m89" d="M90 0V730H210L433 105Q431 130 428 166Q426 203 424 244Q423 284 423 320V730H510V0H390L168 625Q170 601 172 564Q174 528 176 488Q177 447 177 410V0H90Z"/><path id="m964" d="M230 -10Q148 -10 102 34Q55 78 55 155V280Q55 333 82 370Q110 406 161 421L154 431Q123 473 109 509Q95 545 95 581Q95 629 118 665Q140 701 180 720Q221 740 275 740Q333 740 376 719Q418 698 441 660Q464 622 464 569H374Q374 598 362 619Q350 640 328 651Q306 662 275 662Q248 662 228 652Q207 642 196 624Q185 605 185 579Q185 554 196 525Q206 496 225 470L397 233L468 360H562L449 161L566 0H467L404 87Q330 -10 230 -10ZM235 70Q269 70 300 92Q332 115 354 155L207 358Q176 353 160 333Q145 313 145 280V155Q145 115 168 92Q192 70 235 70Z"/><path id="s115" d="M120 -9Q78 -9 51 18Q24 44 24 88Q24 131 51 170Q78 208 125 239Q172 270 232 289Q245 293 245 306V397Q245 445 230 466Q215 486 189 486Q164 486 144 464Q123 441 114 388Q109 356 92 342Q76 327 59 327Q31 327 31 355Q31 384 48 412Q64 441 91 464Q118 488 150 502Q182 516 214 516Q313 516 313 401V95Q313 53 334 53Q347 53 358 70Q369 88 369 130Q369 146 382 146Q394 146 394 129Q394 56 368 24Q343 -9 311 -9Q287 -9 273 10Q259 30 254 57Q253 67 246 68Q238 68 231 58Q207 25 182 8Q157 -9 120 -9ZM147 37Q173 37 195 56Q217 74 231 105Q245 136 245 175V248Q245 267 224 259Q163 237 130 198Q96 160 96 106Q96 37 147 37Z"/><path id="s128" d="M180 -9Q136 -9 100 20Q65 50 44 105Q23 160 23 236Q23 321 48 384Q74 447 118 482Q162 516 216 516Q262 516 288 498Q298 491 298 476L300 354Q300 339 288 339Q277 339 274 352Q260 407 247 437Q234 467 220 478Q206 490 189 490Q169 490 148 467Q126 444 112 392Q97 341 97 257Q97 150 124 96Q152 42 196 42Q231 42 254 71Q278 100 295 176Q298 187 307 187Q319 187 316 167Q305 97 286 58Q266 20 240 6Q213 -9 180 -9Z"/><path id="s133" d="M181 -9Q137 -9 102 22Q68 52 49 106Q30 161 30 233Q30 317 56 380Q82 444 128 480Q174 516 232 516Q246 516 260 514Q274 511 287 505Q303 497 303 512V640Q303 658 298 665Q292 672 278 673L252 676Q241 678 241 688Q241 698 252 700Q284 706 304 714Q323 722 336 730Q352 740 360 740Q371 740 371 724V95Q371 53 392 53Q405 53 416 70Q427 88 427 130Q427 146 440 146Q452 146 452 129Q452 56 427 24Q402 -9 370 -9Q341 -9 326 10Q311 30 306 57Q305 65 299 66Q293 66 288 58Q260 19 237 5Q214 -9 181 -9ZM203 37Q229 37 252 54Q274 72 288 102Q303 132 303 169V394Q303 439 282 465Q262 491 229 491Q173 491 138 426Q104 360 104 247Q104 144 130 90Q157 37 203 37Z"/><path id="s137" d="M192 -9Q144 -9 106 23Q68 55 46 114Q23 172 23 249Q23 328 46 388Q69 448 109 482Q149 516 198 516Q257 516 294 468Q330 419 330 310Q330 277 305 277H115Q95 277 95 254Q95 148 126 95Q157 42 205 42Q243 42 267 69Q291 96 306 160Q309 171 319 171Q331 171 328 151Q312 62 277 26Q242 -9 192 -9ZM112 302H213Q261 302 261 352Q261 417 245 454Q229 491 197 491Q158 491 132 446Q105 401 97 318Q95 302 112 302Z"/><path id="s147" d="M178 -215Q102 -215 58 -184Q14 -154 14 -111Q14 -93 19 -78Q24 -64 40 -45Q57 -26 91 4Q103 15 103 24Q103 34 91 39Q55 54 48 78Q41 101 65 121L137 183Q149 193 136 200Q95 220 71 262Q47 304 47 352Q47 398 67 435Q87 472 121 494Q155 516 197 516Q221 516 243 508Q257 503 260 517Q269 555 294 576Q318 598 342 598Q365 598 380 584Q394 571 394 551Q394 534 384 524Q374 514 359 514Q346 514 340 519Q334 524 329 529Q324 534 313 534Q289 534 283 508Q280 498 284 491Q287 484 294 477Q318 454 332 421Q345 388 345 348Q345 300 326 262Q306 224 272 202Q239 180 197 180Q179 180 166 172Q153 165 140 151L123 132Q110 116 116 102Q121 87 143 87H229Q301 87 343 52Q385 16 385 -46Q385 -95 357 -133Q329 -171 282 -193Q236 -215 178 -215ZM196 205Q232 205 253 244Q274 283 274 350Q274 415 252 454Q231 494 196 494Q161 494 140 454Q118 415 118 350Q118 283 139 244Q160 205 196 205ZM190 -193Q226 -193 256 -177Q286 -161 304 -132Q321 -104 321 -68Q321 -23 294 2Q268 26 220 26H197Q166 26 150 20Q135 14 121 -1Q90 -34 82 -54Q74 -74 74 -95Q74 -139 104 -166Q135 -193 190 -193Z"/><path id="s151" d="M27 0Q15 0 15 11Q15 21 26 23L40 25Q61 28 68 37Q74 46 74 67V640Q74 658 68 664Q63 671 49 673L28 676Q17 678 17 688Q17 698 28 700Q56 706 75 714Q94 722 107 730Q123 740 131 740Q142 740 142 724V459Q142 450 148 448Q154 447 163 455Q201 490 230 503Q259 516 291 516Q338 516 365 484Q392 453 392 392V67Q392 46 398 38Q405 29 426 26L448 23Q459 21 459 11Q459 0 447 0H279Q265 0 265 11Q265 21 276 23L290 25Q311 28 318 37Q324 46 324 67V381Q324 430 306 450Q288 470 255 470Q223 470 198 452Q172 433 157 402Q142 372 142 335V67Q142 46 148 37Q155 28 176 26L203 23Q214 21 214 11Q214 0 202 0H27Z"/><path id="s153" d="M114 605Q93 605 78 620Q64 635 64 658Q64 681 78 696Q93 710 114 710Q135 710 149 696Q163 681 163 658Q163 635 149 620Q135 605 114 605ZM30 0Q15 0 15 11Q15 20 28 23L40 25Q65 29 72 38Q79 46 79 67V403Q79 421 74 428Q68 434 54 436L33 439Q20 440 20 450Q20 458 36 461Q67 466 86 477Q105 488 123 504Q132 513 138 513Q147 513 147 501V67Q147 46 153 37Q159 28 176 26L201 23Q212 21 212 12Q212 0 197 0H30Z"/><path id="s165" d="M27 0Q15 0 15 11Q15 21 26 23L40 25Q61 28 68 37Q74 46 74 67V640Q74 658 68 664Q63 671 49 673L28 676Q17 678 17 688Q17 698 28 700Q56 706 75 714Q94 722 107 730Q123 740 131 740Q142 740 142 724V305Q142 295 150 292Q159 290 167 299L284 425Q305 448 302 464Q298 479 278 483L255 487Q242 490 242 500Q242 510 256 510H428Q442 510 442 499Q442 488 429 487L420 486Q397 484 374 468Q351 453 319 420L257 354Q236 331 247 309L373 67Q384 47 397 38Q410 29 429 25L439 23Q451 20 451 11Q451 0 437 0H263Q249 0 249 11Q249 21 262 23L279 25Q317 30 295 74L200 259Q195 269 186 270Q176 271 168 263L157 252Q148 243 145 234Q142 225 142 214V67Q142 46 148 37Q155 28 176 26L203 23Q214 21 214 11Q214 0 202 0H27Z"/><path id="s167" d="M20 0Q8 0 8 11Q8 21 19 23L33 25Q54 28 64 37Q74 46 74 67V640Q74 658 68 665Q63 672 49 673L26 676Q15 678 15 688Q15 698 26 700Q54 706 74 714Q94 722 107 730Q123 740 131 740Q142 740 142 724V67Q142 46 148 38Q155 29 176 26L199 23Q210 21 210 11Q210 0 198 0H20Z"/><path id="s172" d="M30 0Q15 0 15 11Q15 20 28 23L40 25Q61 29 68 38Q74 46 74 67V403Q74 421 68 428Q63 434 49 436L28 439Q15 440 15 450Q15 458 31 461Q62 466 78 477Q95 488 113 504Q122 513 128 513Q137 513 137 501V456Q137 449 143 446Q149 442 156 449Q197 488 228 502Q258 516 289 516Q318 516 340 500Q363 485 374 454Q377 446 384 444Q392 443 399 450Q440 488 470 502Q500 516 531 516Q573 516 600 484Q626 453 626 392V67Q626 46 632 38Q639 29 660 26L682 23Q693 21 693 11Q693 0 681 0H510Q496 0 496 11Q496 21 507 23L521 25Q544 28 551 37Q558 46 558 67V381Q558 430 540 450Q523 470 493 470Q463 470 438 452Q414 433 399 402Q384 372 384 335V67Q384 46 391 38Q398 29 420 26L442 23Q453 21 453 11Q453 0 441 0H271Q257 0 257 11Q257 21 268 23L282 25Q303 28 310 37Q316 46 316 67V381Q316 430 298 450Q281 470 251 470Q221 470 196 452Q172 433 157 402Q142 372 142 335V67Q142 46 148 37Q155 28 176 26L203 23Q214 21 214 12Q214 0 199 0H30Z"/><path id="s173" d="M30 0Q15 0 15 11Q15 20 28 23L40 25Q61 29 68 38Q74 46 74 67V403Q74 421 68 428Q63 434 49 436L28 439Q15 440 15 450Q15 458 31 461Q62 466 78 477Q95 488 113 504Q122 513 128 513Q137 513 137 501V456Q137 447 144 444Q150 442 158 450Q198 488 228 502Q259 516 293 516Q338 516 365 484Q392 453 392 392V67Q392 46 398 38Q405 29 426 26L448 23Q459 21 459 11Q459 0 447 0H279Q265 0 265 11Q265 21 276 23L290 25Q311 28 318 37Q324 46 324 67V381Q324 430 306 450Q288 470 255 470Q223 470 198 452Q172 433 157 402Q142 372 142 335V67Q142 46 148 37Q155 28 176 26L203 23Q214 21 214 12Q214 0 199 0H30Z"/><path id="s179" d="M203 -9Q152 -9 112 26Q71 60 47 120Q23 180 23 254Q23 328 47 387Q71 446 112 481Q153 516 203 516Q254 516 294 481Q335 446 359 387Q383 328 383 254Q383 180 360 120Q336 60 295 26Q254 -9 203 -9ZM203 16Q307 16 307 254Q307 491 203 491Q99 491 99 254Q99 16 203 16Z"/><path id="s189" d="M27 -205Q12 -205 12 -194Q12 -183 25 -182L39 -180Q60 -177 66 -168Q73 -159 73 -138V403Q73 421 68 428Q62 434 48 436L27 439Q14 440 14 450Q14 458 30 461Q61 466 78 477Q94 488 112 504Q121 513 127 513Q136 513 136 501V470Q136 463 142 460Q148 458 156 466L167 477Q187 497 208 506Q229 516 256 516Q302 516 338 486Q373 455 394 401Q414 347 414 274Q414 191 388 127Q362 63 316 27Q271 -9 212 -9Q182 -9 159 2Q141 10 141 -9V-138Q141 -159 148 -166Q154 -174 175 -177L212 -182Q223 -184 223 -193Q223 -205 208 -205H27ZM215 16Q271 16 306 82Q340 148 340 260Q340 363 310 417Q280 471 225 471Q191 471 166 443Q141 415 141 365V113Q141 68 162 42Q182 16 215 16Z"/><path id="s192" d="M154 446Q195 516 253 516Q286 516 302 496Q318 477 318 453Q318 434 308 422Q299 410 279 410Q263 410 256 418Q248 425 244 435Q239 445 233 452Q227 460 213 460Q195 460 179 438Q163 417 152 381Q142 345 142 299V67Q142 46 148 37Q155 28 176 26L203 23Q214 21 214 12Q214 0 199 0H30Q15 0 15 11Q15 20 28 23L40 25Q61 29 68 38Q74 46 74 67V403Q74 421 68 428Q63 434 49 436L28 439Q15 440 15 450Q15 458 31 461Q62 466 78 477Q95 488 113 504Q122 513 128 513Q137 513 137 501V447Q137 440 143 438Q149 437 154 446Z"/><path id="s196" d="M131 -9Q108 -9 82 -4Q56 2 40 10Q31 15 31 27L28 139Q28 156 41 156Q52 156 56 140Q73 69 98 43Q122 17 157 17Q186 17 205 40Q224 62 224 102Q224 142 202 173Q180 204 128 241Q76 276 52 312Q28 347 28 389Q28 446 68 481Q108 516 174 516Q194 516 213 512Q232 507 247 497Q256 491 256 481L258 371Q258 356 246 356Q239 356 236 360Q233 365 231 372Q211 437 191 462Q171 488 142 488Q116 488 99 470Q82 452 82 425Q82 390 103 364Q124 338 179 300Q229 264 254 222Q280 181 280 132Q280 68 239 30Q198 -9 131 -9Z"/><path id="s202" d="M147 -9Q112 -9 90 16Q67 40 67 96V470Q67 482 55 482H26Q10 482 10 494Q10 502 19 508Q52 531 72 558Q92 584 107 630Q114 651 124 651Q135 651 135 635V524Q135 510 149 510H214Q230 510 230 496Q230 482 214 482H149Q135 482 135 468V95Q135 73 142 60Q149 48 168 48Q189 48 202 69Q216 90 220 137Q222 151 233 151Q245 151 245 136Q242 59 214 25Q185 -9 147 -9Z"/><path id="s205" d="M171 -9Q146 -9 123 2Q100 13 85 37Q70 61 70 101V449Q70 467 64 474Q59 481 45 482L28 484Q11 486 11 497Q11 510 30 510H123Q138 510 138 495V122Q138 76 156 56Q173 37 204 37Q235 37 259 54Q283 72 298 102Q312 131 312 166V449Q312 467 306 474Q301 481 287 482L270 484Q253 486 253 497Q253 510 272 510H365Q380 510 380 495V107Q380 89 386 82Q391 76 405 74L426 71Q439 70 439 61Q439 52 423 49Q392 45 374 33Q355 21 341 4Q332 -5 326 -5Q317 -5 317 7V53Q317 61 312 62Q306 64 300 58Q263 21 234 6Q206 -9 171 -9Z"/><path id="s215" d="M194 -9Q185 -9 181 2L48 443Q41 467 34 474Q28 481 14 484L-1 487Q-14 490 -14 500Q-14 510 0 510H165Q179 510 179 500Q179 489 166 487L150 485Q126 482 120 474Q114 465 120 443L203 154Q206 143 213 143Q220 143 223 154L304 425Q312 452 308 466Q305 479 280 483L259 487Q246 490 246 500Q246 510 260 510H387Q401 510 401 499Q401 489 389 485L380 482Q365 477 354 464Q344 451 334 419L207 2Q203 -9 194 -9Z"/><path id="s216" d="M187 -9Q174 -9 169 11L48 443Q41 467 34 474Q28 481 14 484L-1 487Q-14 490 -14 500Q-14 510 0 510H162Q176 510 176 500Q176 489 163 487L147 485Q123 482 117 474Q111 465 117 443L196 152Q199 142 206 142Q212 142 215 152L283 411Q285 419 286 427Q286 435 283 444Q276 468 270 474Q263 481 249 484L234 487Q221 490 221 500Q221 510 235 510H397Q411 510 411 500Q411 489 398 487L382 485Q358 482 353 474Q348 465 352 443L416 154Q418 144 424 144Q431 144 434 154L510 425Q518 452 514 466Q511 479 486 483L465 487Q452 490 452 500Q452 510 466 510H591Q605 510 605 499Q605 489 593 485L584 482Q569 477 558 464Q547 451 538 419L424 11Q419 -9 405 -9Q393 -9 388 11L310 331Q307 342 300 342Q294 343 291 331L205 11Q200 -9 187 -9Z"/><path id="s221" d="M227 0Q213 0 213 10Q213 20 226 23L241 26Q271 33 257 59L186 199Q182 206 176 206Q171 207 167 199L102 77Q80 35 109 29L135 23Q148 20 148 10Q148 0 134 0H6Q-8 0 -8 11Q-8 22 4 25L16 28Q35 33 48 44Q61 54 81 91L155 227Q163 242 157 256L62 443Q51 466 44 474Q36 482 26 484L11 487Q-2 490 -2 500Q-2 510 12 510H160Q174 510 174 500Q174 490 161 487L146 484Q116 477 130 451L198 319Q202 312 207 312Q212 312 216 319L276 433Q298 475 269 481L243 487Q230 490 230 500Q230 510 244 510H372Q386 510 386 499Q386 488 374 485L362 482Q343 478 330 468Q317 457 297 419L228 291Q219 276 227 260L325 67Q337 43 344 36Q351 28 361 26L376 23Q389 20 389 10Q389 0 375 0H227Z"/><path id="s222" d="M83 -205Q56 -205 40 -186Q24 -168 24 -144Q24 -125 35 -112Q46 -99 65 -99Q81 -99 88 -106Q95 -113 98 -122Q101 -131 104 -138Q107 -145 116 -145Q127 -145 136 -130Q145 -114 161 -64Q171 -34 174 -12Q176 10 172 35Q169 60 157 96L48 443Q41 467 34 474Q28 481 14 484L-1 487Q-14 490 -14 500Q-14 510 0 510H165Q179 510 179 500Q179 489 166 487L150 485Q126 482 120 474Q113 465 120 443L208 150Q211 140 218 140Q224 140 227 150L312 425Q320 452 316 466Q313 479 288 483L267 487Q254 490 254 500Q254 510 268 510H395Q409 510 409 499Q409 489 397 485L388 482Q373 477 363 464Q353 451 342 419L193 -46Q171 -116 154 -150Q136 -184 120 -194Q104 -205 83 -205Z"/><path id="s267" d="M28 0Q13 0 13 11Q13 22 26 23L46 25Q71 27 78 36Q85 46 85 67V458Q85 482 61 482H38Q26 482 26 492Q26 502 38 503Q85 508 85 544V550Q85 602 106 647Q126 692 167 720Q208 748 268 748Q329 748 366 724Q403 700 403 668Q403 649 394 638Q384 626 363 626Q342 626 332 640Q322 654 314 672Q305 691 291 705Q277 719 248 719Q223 719 202 708Q180 697 166 669Q153 641 153 590V522Q153 510 165 510H377Q401 510 401 486V67Q401 46 407 37Q413 28 430 26L455 23Q466 21 466 12Q466 0 451 0H284Q269 0 269 11Q269 20 282 23L294 25Q319 29 326 38Q333 46 333 67V468Q333 482 319 482H165Q153 482 153 470V67Q153 46 159 37Q165 28 182 26L207 23Q218 21 218 12Q218 0 203 0H28Z"/><path id="s284" d="M107 -9Q85 -9 70 6Q54 20 54 44Q54 67 70 82Q85 96 107 96Q127 96 143 82Q159 67 159 44Q159 20 143 6Q127 -9 107 -9Z"/><path id="s285" d="M76 -156Q65 -167 57 -160Q48 -153 60 -141Q89 -112 101 -87Q113 -62 113 -35Q113 -19 105 -10Q97 -2 87 5Q77 12 69 22Q61 31 61 49Q61 69 74 82Q88 96 109 96Q134 96 148 78Q163 60 163 29Q163 -24 138 -74Q114 -123 76 -156Z"/><path id="s301" d="M92 259Q82 259 82 269V283Q82 293 92 293H338Q348 293 348 283V269Q348 259 338 259H92Z"/><path id="s32" d="M34 0Q19 0 19 11Q19 20 32 23L55 27Q76 31 82 38Q89 45 89 66V654Q89 675 82 682Q76 689 55 693L32 697Q19 700 19 709Q19 720 34 720H356Q379 720 381 697L389 531Q391 514 376 514Q364 514 362 527L357 560Q349 612 329 641Q309 670 284 682Q259 695 236 695Q192 695 176 681Q160 667 160 638V402Q160 388 174 388H209Q253 388 263 435L274 485Q277 498 289 498Q301 498 301 481V256Q301 239 289 239Q277 239 274 252L263 301Q256 336 244 347Q231 358 208 358H174Q160 358 160 344V71Q160 50 166 42Q173 33 194 30L241 23Q252 21 252 12Q252 0 237 0H34Z"/><path id="s39" d="M34 0Q19 0 19 11Q19 20 32 23L55 27Q76 31 82 38Q89 45 89 66V654Q89 675 82 682Q76 689 55 693L32 697Q19 700 19 709Q19 720 34 720H215Q230 720 230 709Q230 700 217 697L194 693Q173 689 166 682Q160 675 160 654V66Q160 45 166 38Q173 31 194 27L217 23Q230 20 230 11Q230 0 215 0H34Z"/><path id="s75" d="M434 -215Q404 -215 370 -202Q337 -190 311 -159Q285 -128 275 -71Q270 -39 259 -25Q248 -11 222 -1Q170 16 128 68Q87 119 64 195Q40 271 40 361Q40 439 58 506Q75 573 106 624Q138 674 180 702Q222 730 270 730Q318 730 360 702Q401 674 433 624Q465 573 482 506Q500 439 500 361Q500 269 476 192Q451 114 408 63Q366 12 312 -3Q306 -4 306 -8Q306 -13 311 -17Q324 -26 333 -40Q342 -53 348 -74Q366 -132 394 -158Q423 -184 457 -184Q487 -184 518 -165Q526 -160 533 -162Q540 -164 540 -172Q540 -179 532 -186Q516 -198 492 -206Q469 -215 434 -215ZM270 18Q341 18 381 103Q421 188 421 361Q421 534 381 618Q341 703 270 703Q200 703 160 618Q119 534 119 361Q119 188 160 103Q200 18 270 18Z"/></defs><rect x="3" y="3" width="440" height="176" fill="#000"/><rect x="0" y="0" width="440" height="176" fill="#fff"/><rect x="0" y="0" width="440" height="22" fill="#e8e8e8"/><rect x="0" y="3" width="440" height="15" fill="url(#stripes)" opacity="0.22"/><rect x="184.08" y="1" width="71.84" height="19" fill="#e8e8e8"/><g transform="matrix(0.012 0 0 -0.012 194.08 15)" fill="#000"><use href="#m236" x="0"/><use href="#m265" x="620"/><use href="#m180" x="1240"/><use href="#m271" x="1860"/><use href="#m571" x="2480"/><use href="#m180" x="3100"/><use href="#m246" x="3720"/></g><rect x="7.5" y="5.5" width="11" height="11" fill="#fff" stroke="#000"/><rect x="421.5" y="5.5" width="11" height="11" fill="#fff" stroke="#000"/><rect x="423.5" y="7.5" width="5" height="5" fill="#fff" stroke="#000"/><rect x="0" y="21" width="440" height="1" fill="#000"/><rect x="0" y="22" width="440" height="3" fill="#0000aa"/><rect x="16" y="47" width="10" height="9" fill="#ffd0a0" stroke="#000"/><g transform="matrix(0.026 0 0 -0.026 34 61)" fill="#000"><use href="#i147" x="0"/><use href="#i167" x="401"/><use href="#i115" x="641"/><use href="#i172" x="1115"/><use href="#i284" x="1860"/><use href="#i115" x="2079"/><use href="#i153" x="2553"/></g><g transform="matrix(0.0095 0 0 -0.0095 16 82)" fill="#666"><use href="#m88" x="0"/><use href="#m82" x="680"/><use href="#m37" x="2040"/><use href="#m89" x="2720"/><use href="#m56" x="3400"/><use href="#m66" x="4080"/><use href="#m89" x="4760"/><use href="#m37" x="5440"/><use href="#m37" x="6120"/><use href="#m124" x="6800"/><use href="#m66" x="7480"/><use href="#m89" x="8160"/><use href="#m56" x="8840"/><use href="#m964" x="10200"/><use href="#m136" x="11560"/><use href="#m37" x="12240"/><use href="#m1" x="12920"/><use href="#m88" x="13600"/><use href="#m82" x="14960"/><use href="#m37" x="15640"/><use href="#m1" x="16320"/><use href="#m33" x="17000"/><use href="#m589" x="18360"/><use href="#m37" x="19040"/><use href="#m166" x="19720"/><use href="#m599" x="20400"/><use href="#m590" x="21080"/><use href="#m580" x="22440"/><use href="#m540" x="23800"/><use href="#m88" x="24480"/><use href="#m707" x="25160"/><use href="#m141" x="26520"/><use href="#m128" x="27200"/><use href="#m37" x="27880"/><use href="#m124" x="28560"/><use href="#m128" x="29240"/></g><g transform="matrix(0.015 0 0 -0.015 16 103)" fill="#111"><use href="#s39" x="0"/><use href="#s133" x="231"/><use href="#s137" x="688"/><use href="#s173" x="1043"/><use href="#s202" x="1513"/><use href="#s153" x="1772"/><use href="#s202" x="1995"/><use href="#s222" x="2234"/><use href="#s301" x="2621"/><use href="#s189" x="3051"/><use href="#s192" x="3495"/><use href="#s137" x="3813"/><use href="#s196" x="4168"/><use href="#s137" x="4476"/><use href="#s192" x="4831"/><use href="#s215" x="5149"/><use href="#s153" x="5542"/><use href="#s173" x="5765"/><use href="#s147" x="6235"/><use href="#s189" x="6807"/><use href="#s151" x="7251"/><use href="#s179" x="7721"/><use href="#s202" x="8129"/><use href="#s179" x="8388"/><use href="#s196" x="8796"/><use href="#s151" x="9104"/><use href="#s179" x="9574"/><use href="#s179" x="9982"/><use href="#s202" x="10390"/><use href="#s285" x="10649"/><use href="#s172" x="11036"/><use href="#s205" x="11740"/><use href="#s167" x="12194"/><use href="#s202" x="12414"/><use href="#s153" x="12673"/><use href="#s301" x="12896"/><use href="#s115" x="13326"/><use href="#s173" x="13725"/><use href="#s147" x="14195"/><use href="#s167" x="14597"/><use href="#s137" x="14817"/><use href="#s285" x="15172"/><use href="#s202" x="15559"/><use href="#s192" x="15818"/><use href="#s137" x="16136"/><use href="#s173" x="16491"/><use href="#s133" x="16961"/><use href="#s167" x="17588"/><use href="#s179" x="17808"/><use href="#s179" x="18216"/><use href="#s165" x="18624"/><use href="#s196" x="19057"/><use href="#s285" x="19365"/><use href="#s267" x="19752"/><use href="#s221" x="20229"/><use href="#s301" x="20598"/><use href="#s137" x="21028"/><use href="#s215" x="21383"/><use href="#s137" x="21764"/><use href="#s192" x="22119"/><use href="#s222" x="22437"/><use href="#s202" x="22838"/><use href="#s151" x="23097"/><use href="#s153" x="23567"/><use href="#s173" x="23790"/><use href="#s147" x="24260"/><use href="#s284" x="24662"/><use href="#s32" x="25045"/><use href="#s153" x="25441"/><use href="#s215" x="25664"/><use href="#s137" x="26045"/></g><g transform="matrix(0.015 0 0 -0.015 16 123)" fill="#111"><use href="#s128" x="0"/><use href="#s151" x="339"/><use href="#s115" x="809"/><use href="#s153" x="1208"/><use href="#s173" x="1431"/><use href="#s137" x="1901"/><use href="#s133" x="2256"/><use href="#s75" x="2883"/><use href="#s216" x="3415"/><use href="#s137" x="4000"/><use href="#s173" x="4355"/><use href="#s189" x="4995"/><use href="#s153" x="5439"/><use href="#s189" x="5662"/><use href="#s137" x="6106"/><use href="#s167" x="6461"/><use href="#s153" x="6681"/><use href="#s173" x="6904"/><use href="#s137" x="7374"/><use href="#s196" x="7729"/><use href="#s153" x="8207"/><use href="#s173" x="8430"/><use href="#s189" x="9070"/><use href="#s192" x="9514"/><use href="#s179" x="9832"/><use href="#s133" x="10240"/><use href="#s205" x="10697"/><use href="#s128" x="11151"/><use href="#s202" x="11490"/><use href="#s153" x="11749"/><use href="#s179" x="11972"/><use href="#s173" x="12380"/><use href="#s284" x="12850"/></g><path d="M16 147H424" stroke="#ccc" stroke-dasharray="1 2"/><g transform="matrix(0.0105 0 0 -0.0105 16 164)" fill="#000"><use href="#m822" x="0"/></g><g transform="matrix(0.0105 0 0 -0.0105 28.6 164)" fill="#0000aa"><use href="#m243" x="0"/><use href="#m180" x="600"/><use href="#m305" x="1200"/><use href="#m305" x="1800"/><use href="#m351" x="2400"/><use href="#m246" x="3000"/><use href="#m272" x="3600"/><use href="#m571" x="4200"/><use href="#m345" x="4800"/><use href="#m279" x="5400"/><use href="#m308" x="6000"/><use href="#m262" x="6600"/><use href="#m585" x="7200"/><use href="#m236" x="7800"/><use href="#m265" x="8400"/><use href="#m180" x="9000"/><use href="#m271" x="9600"/><use href="#m585" x="10200"/></g><rect x="28.6" y="165.68" width="113.4" height="0.8" fill="#0000aa"/><g transform="matrix(0.0105 0 0 -0.0105 367.3 164)" fill="#008000"><use href="#m593" x="0"/><use href="#m216" x="600"/><use href="#m272" x="1200"/><use href="#m320" x="1800"/><use href="#m216" x="2400"/><use href="#m308" x="3000"/><use href="#m746" x="4200"/><use href="#m594" x="4800"/></g><rect x="0.5" y="0.5" width="439" height="175" fill="none" stroke="#000"/></svg>
