<svg xmlns="http://www.w3.org/2000/svg" width="900" height="220" viewBox="0 0 900 220" role="img" aria-label="Stack — pipelines: ComfyUI graphs · custom nodes · Diffusers · GPU queues and APIs; models: FLUX.2 · Qwen Image Edit · Stable Diffusion · LoRA training · SAM3 · YOLO · NAFNet; vision: segmentation · restoration · super-resolution · colour · quality assessment; code: Python · PyTorch · ONNX Runtime · C++; agents: Claude Code · Codex · MCP; huggingface: 10 open models on huggingface.co/happyinhappy · NAFNet jewellery restore · DINOv3 car viewpoint · FLUX.2 Klein LoRAs · ONNX retouch"><title>Stack — pipelines: ComfyUI graphs · custom nodes · Diffusers · GPU queues and APIs; models: FLUX.2 · Qwen Image Edit · Stable Diffusion · LoRA training · SAM3 · YOLO · NAFNet; vision: segmentation · restoration · super-resolution · colour · quality assessment; code: Python · PyTorch · ONNX Runtime · C++; agents: Claude Code · Codex · MCP; huggingface: 10 open models on huggingface.co/happyinhappy · NAFNet jewellery restore · DINOv3 car viewpoint · FLUX.2 Klein LoRAs · ONNX retouch</title><defs><pattern id="stripes" width="4" height="2" patternUnits="userSpaceOnUse"><rect width="4" height="1" fill="#000"/></pattern><path id="m1" d="M50 0 240 730H361L550 0H459L411 194H190L142 0H50ZM208 270H392L336 495Q320 559 311 602Q302 645 300 658Q298 645 289 602Q280 559 264 496L208 270Z"/><path id="m1010" d="M-289 95V290H-480V370H-289V565H-201V370H201V565H289V370H480V290H289V95H201V290H-201V95H-289Z"/><path id="m121" d="M92 0V730H327Q395 730 445 704Q495 677 522 629Q550 581 550 515Q550 450 522 402Q495 353 445 326Q395 300 327 300H182V0H92ZM182 381H327Q386 381 422 418Q457 454 457 515Q457 577 422 613Q386 649 327 649H182V381Z"/><path id="m123" d="M422 -180 315 -3 325 -9Q321 -9 314 -10Q308 -10 300 -10Q233 -10 184 16Q134 43 107 92Q80 140 80 205V525Q80 591 107 639Q134 687 184 714Q233 740 300 740Q368 740 417 714Q466 687 493 639Q520 591 520 525V205Q520 138 491 88Q462 38 409 13L526 -180H422ZM300 70Q359 70 394 107Q430 144 430 205V525Q430 587 394 624Q359 660 300 660Q241 660 206 624Q170 587 170 525V205Q170 144 206 107Q241 70 300 70Z"/><path id="m124" d="M92 0V730H318Q383 730 432 704Q481 677 508 630Q535 583 535 520Q535 446 496 393Q458 340 392 320L545 0H439L299 310H182V0H92ZM182 391H318Q374 391 408 426Q442 462 442 520Q442 579 408 614Q374 649 318 649H182V391Z"/><path id="m128" d="M304 -10Q232 -10 180 14Q129 38 101 83Q73 128 72 190H162Q162 135 200 103Q237 71 304 71Q367 71 402 102Q438 133 438 188Q438 232 414 265Q391 298 347 311L248 342Q173 365 132 419Q92 473 92 546Q92 605 118 648Q145 692 193 716Q241 741 306 741Q402 741 460 688Q518 634 519 545H429Q429 599 396 630Q364 660 305 660Q247 660 214 632Q182 604 182 554Q182 509 206 476Q230 443 275 429L375 397Q448 374 488 319Q528 264 528 190Q528 130 500 85Q472 40 422 15Q371 -10 304 -10Z"/><path id="m136" d="M255 0V649H55V731H545V649H345V0H255Z"/><path id="m141" d="M300 -10Q198 -10 144 46Q90 103 90 200V730H180V200Q180 140 210 105Q239 70 300 70Q360 70 390 105Q420 140 420 200V730H510V200Q510 102 456 46Q403 -10 300 -10Z"/><path id="m166" d="M40 0 250 370 51 730H155L268 514Q277 497 286 478Q296 458 302 447Q307 458 316 478Q326 497 335 514L450 730H549L350 376L560 0H457L332 232Q323 249 314 268Q304 288 299 300Q294 288 284 269Q275 250 266 233L140 0H40Z"/><path id="m167" d="M255 0V273L35 730H128L273 430Q285 405 292 388Q299 370 301 362Q303 370 310 388Q318 405 330 430L472 730H565L345 273V0H255Z"/><path id="m180" d="M252 -10Q165 -10 115 34Q65 79 65 155Q65 232 115 276Q165 320 250 320H420V375Q420 426 390 454Q359 481 303 481Q254 481 221 460Q188 440 183 405H93Q102 476 160 518Q218 560 305 560Q400 560 455 511Q510 462 510 378V0H422V105H407L422 120Q422 60 376 25Q329 -10 252 -10ZM274 61Q338 61 379 93Q420 125 420 175V253H252Q207 253 181 228Q155 203 155 160Q155 114 186 88Q218 61 274 61Z"/><path id="m205" d="M332 -10Q264 -10 223 26Q182 63 182 126L200 105H182V0H92V730H182V570L180 445H200L182 424Q182 486 224 523Q265 560 332 560Q415 560 465 505Q515 450 515 355V194Q515 100 465 45Q415 -10 332 -10ZM302 68Q359 68 392 102Q425 136 425 200V350Q425 414 392 448Q359 482 302 482Q247 482 214 447Q182 412 182 350V200Q182 138 214 103Q247 68 302 68Z"/><path id="m206" d="M304 -10Q238 -10 188 15Q139 40 112 88Q85 135 85 200V350Q85 416 112 463Q139 510 188 535Q238 560 304 560Q399 560 457 509Q515 458 518 370H428Q425 423 392 452Q360 480 304 480Q245 480 210 446Q175 413 175 351V200Q175 138 210 104Q245 70 304 70Q360 70 392 99Q425 128 428 180H518Q515 92 457 41Q399 -10 304 -10Z"/><path id="m212" d="M268 -10Q186 -10 136 45Q85 100 85 194V355Q85 450 135 505Q185 560 268 560Q336 560 377 523Q418 486 418 424L400 445H420L418 570V730H508V0H418V105H400L418 126Q418 63 377 26Q336 -10 268 -10ZM298 68Q354 68 386 103Q418 138 418 200V350Q418 412 386 447Q354 482 298 482Q241 482 208 448Q175 414 175 350V200Q175 136 208 102Q241 68 298 68Z"/><path id="m216" d="M300 -10Q235 -10 186 16Q138 42 112 90Q85 137 85 200V350Q85 414 112 461Q138 508 186 534Q235 560 300 560Q365 560 414 534Q462 508 488 461Q515 414 515 350V253H173V200Q173 135 206 100Q239 66 300 66Q352 66 384 84Q416 103 423 140H513Q504 71 446 30Q387 -10 300 -10ZM427 313V350Q427 415 394 450Q362 485 300 485Q239 485 206 450Q173 415 173 350V321H434L427 313Z"/><path id="m235" d="M220 0V413H60V495H220V590Q220 655 261 692Q302 730 374 730H535V648H374Q343 648 326 634Q310 619 310 590V495H535V413H310V0H220Z"/><path id="m236" d="M161 -180V-98H336Q378 -98 398 -79Q417 -60 417 -20V50L419 150H401L418 165Q418 105 378 70Q338 35 271 35Q186 35 137 90Q88 146 88 240V356Q88 450 137 505Q186 560 271 560Q338 560 378 525Q418 490 418 430L401 445H418V550H507V-20Q507 -94 462 -137Q416 -180 335 -180H161ZM298 113Q354 113 386 148Q418 183 418 245V350Q418 412 386 447Q354 482 298 482Q241 482 210 448Q178 414 178 350V245Q178 181 210 147Q241 113 298 113Z"/><path id="m243" d="M92 0V730H182V550V445H201L182 424Q182 489 221 524Q260 560 329 560Q412 560 461 509Q510 458 510 370V0H420V360Q420 419 388 452Q357 484 303 484Q247 484 214 449Q182 414 182 350V0H92Z"/><path id="m246" d="M85 0V82H280V468H110V550H370V82H555V0H85ZM315 649Q282 649 263 666Q244 683 244 712Q244 742 263 760Q282 777 315 777Q348 777 367 760Q386 742 386 712Q386 683 367 666Q348 649 315 649Z"/><path id="m259" d="M85 -180V-97H214Q276 -97 310 -64Q345 -30 345 31V468H115V550H435V31Q435 -66 375 -123Q315 -180 214 -180H85ZM385 649Q352 649 333 666Q314 683 314 712Q314 742 333 760Q352 777 385 777Q418 777 437 760Q456 742 456 712Q456 683 437 666Q418 649 385 649Z"/><path id="m262" d="M95 0V730H185V323H291L451 550H554L369 288L557 0H452L292 245H185V0H95Z"/><path id="m265" d="M375 0Q327 0 291 19Q255 38 235 73Q215 108 215 155V648H30V730H305V155Q305 121 324 102Q343 82 375 82H550V0H375Z"/><path id="m27" d="M304 -10Q238 -10 190 15Q141 40 114 88Q88 135 88 200V530Q88 596 114 643Q141 690 190 715Q238 740 304 740Q370 740 418 714Q466 689 492 642Q518 595 518 530H428Q428 592 396 626Q363 659 304 659Q245 659 212 626Q178 593 178 531V200Q178 138 212 104Q245 71 304 71Q363 71 396 104Q428 138 428 200H518Q518 136 492 88Q466 41 418 16Q370 -10 304 -10Z"/><path id="m271" d="M66 0V550H145V484H163L149 460Q149 506 174 533Q198 560 240 560Q286 560 311 526Q336 492 336 430L309 484H351L332 460Q332 506 358 533Q383 560 425 560Q477 560 506 521Q534 482 534 418V0H451V419Q451 453 436 472Q422 491 394 491Q367 491 352 472Q336 454 336 420V0H264V419Q264 454 248 472Q233 491 205 491Q177 491 163 472Q149 454 149 420V0H66Z"/><path id="m272" d="M92 0V550H182V445H201L182 424Q182 489 221 524Q260 560 329 560Q412 560 461 509Q510 458 510 370V0H420V360Q420 419 388 450Q357 482 303 482Q247 482 214 448Q182 414 182 350V0H92Z"/><path id="m279" d="M300 -8Q234 -8 186 17Q138 42 112 90Q85 137 85 202V348Q85 414 112 461Q138 508 186 533Q234 558 300 558Q366 558 414 533Q462 508 488 461Q515 414 515 349V202Q515 137 488 90Q462 42 414 17Q366 -8 300 -8ZM300 72Q359 72 392 105Q425 138 425 202V348Q425 412 392 445Q359 478 300 478Q242 478 208 445Q175 412 175 348V202Q175 138 208 105Q242 72 300 72Z"/><path id="m305" d="M92 -180V550H182V445H200L182 424Q182 487 224 524Q265 560 333 560Q416 560 466 506Q515 451 515 356V195Q515 132 492 86Q470 40 430 15Q389 -10 333 -10Q266 -10 224 27Q182 64 182 126L200 105H180L182 -20V-180H92ZM303 68Q360 68 392 102Q425 136 425 200V350Q425 414 392 448Q360 482 303 482Q248 482 215 447Q182 412 182 350V200Q182 138 215 103Q248 68 303 68Z"/><path id="m307" d="M418 -180V-20L420 105H400L418 126Q418 64 377 27Q336 -10 268 -10Q185 -10 136 45Q88 100 88 195V356Q88 451 137 506Q186 560 268 560Q336 560 377 524Q418 487 418 424L400 445H418V550H508V-180H418ZM298 68Q354 68 386 103Q418 138 418 200V350Q418 412 386 447Q354 482 298 482Q241 482 210 448Q178 414 178 350V200Q178 136 210 102Q241 68 298 68Z"/><path id="m308" d="M111 0V550H199V445H220L191 380Q191 469 230 514Q268 560 344 560Q431 560 482 506Q534 451 534 358V325H444V350Q444 415 412 450Q381 484 323 484Q266 484 234 449Q201 414 201 350V0H111Z"/><path id="m312" d="M283 -8Q227 -8 186 10Q144 27 120 59Q95 91 90 135H180Q186 106 212 89Q239 72 283 72H325Q378 72 404 94Q430 115 430 151Q430 186 406 206Q383 227 337 234L263 246Q182 260 142 296Q103 333 103 403Q103 477 150 518Q197 558 291 558H329Q408 558 456 521Q504 484 514 421H424Q418 447 394 462Q370 478 329 478H291Q240 478 216 459Q193 440 193 402Q193 368 213 352Q233 336 276 329L350 317Q439 303 480 265Q520 227 520 155Q520 79 472 36Q423 -8 325 -8H283Z"/><path id="m320" d="M360 0Q289 0 250 38Q210 76 210 145V468H55V550H210V705H300V550H520V468H300V145Q300 82 360 82H510V0H360Z"/><path id="m325" d="M299 -10Q204 -10 147 46Q90 103 90 200V550H180V200Q180 138 212 104Q244 69 299 69Q355 69 388 104Q420 138 420 200V550H510V200Q510 103 452 46Q394 -10 299 -10Z"/><path id="m33" d="M92 0V730H281Q352 730 404 703Q455 676 484 627Q512 578 512 511V220Q512 153 484 104Q455 54 404 27Q352 0 281 0H92ZM182 80H281Q347 80 384 117Q422 154 422 220V511Q422 576 384 613Q347 650 281 650H182V80Z"/><path id="m344" d="M239 0 55 550H147L269 180Q280 147 289 116Q298 86 302 69Q307 86 316 116Q325 147 335 180L454 550H545L361 0H239Z"/><path id="m345" d="M123 0 35 550H115L170 160Q173 138 176 112Q180 87 182 70Q184 87 188 112Q193 138 196 160L257 550H343L404 160Q407 138 412 112Q416 87 418 70Q420 87 424 112Q429 138 432 160L489 550H565L473 0H374L315 380Q311 408 306 436Q301 464 299 480Q297 464 293 436Q289 408 284 380L222 0H123Z"/><path id="m350" d="M50 0 245 283 62 550H168L277 380Q284 369 290 356Q297 343 301 335Q304 343 310 356Q317 369 324 380L434 550H539L356 282L550 0H444L326 180Q319 191 312 206Q306 220 301 229Q297 220 290 206Q282 191 274 180L155 0H50Z"/><path id="m351" d="M178 -180 259 34 55 550H155L283 210Q290 193 296 170Q302 146 306 130Q310 146 316 170Q322 193 328 210L448 550H545L274 -180H178Z"/><path id="m37" d="M100 0V730H520V648H189V422H485V341H189V82H520V0H100Z"/><path id="m536" d="M300 -10Q233 -10 184 16Q134 43 107 92Q80 140 80 205V525Q80 591 107 639Q134 687 184 714Q233 740 300 740Q368 740 417 714Q466 687 493 639Q520 591 520 525V205Q520 140 493 92Q466 43 416 16Q367 -10 300 -10ZM300 67Q360 67 396 106Q433 144 433 205V525Q433 586 396 624Q360 663 300 663Q240 663 204 624Q167 586 167 525V205Q167 144 204 106Q240 67 300 67ZM300 306Q273 306 256 323Q240 340 240 368Q240 395 256 412Q273 428 300 428Q327 428 344 412Q360 395 360 368Q360 340 344 323Q327 306 300 306Z"/><path id="m537" d="M90 0V82H288V655L90 507V607L255 730H378V82H540V0H90Z"/><path id="m538" d="M92 0V92L315 329Q372 390 398 438Q424 485 424 529Q424 590 390 625Q357 660 299 660Q235 660 198 624Q162 588 162 525H72Q74 591 102 640Q131 688 182 714Q232 740 299 740Q365 740 414 714Q462 689 488 642Q514 595 514 530Q514 468 481 407Q448 346 373 268L193 82H526V0H92Z"/><path id="m539" d="M289 -10Q223 -10 174 16Q124 43 97 90Q70 137 70 200H160Q160 139 194 104Q229 70 290 70Q352 70 386 106Q420 142 420 200V252Q420 314 386 348Q352 382 290 382H215V472L396 648H100V730H487V640L292 451V462Q392 462 451 405Q510 348 510 252V200Q510 137 482 90Q455 43 405 16Q355 -10 289 -10Z"/><path id="m55" d="M95 0V731H525V649H183V406H499V324H185V0H95Z"/><path id="m56" d="M304 -10Q238 -10 190 15Q141 40 114 88Q88 135 88 200V530Q88 596 114 643Q141 690 190 715Q238 740 304 740Q370 740 418 714Q466 689 492 642Q518 595 518 530H428Q428 592 396 626Q363 659 304 659Q245 659 212 626Q178 593 178 531V200Q178 138 212 104Q245 70 304 70Q363 70 396 104Q428 138 428 200V290H280V372H518V200Q518 136 492 88Q466 41 418 16Q370 -10 304 -10Z"/><path id="m571" d="M300 -10Q262 -10 240 12Q217 34 217 71Q217 110 240 133Q262 156 300 156Q338 156 360 133Q383 110 383 71Q383 34 360 12Q338 -10 300 -10Z"/><path id="m580" d="M300 260Q262 260 240 282Q217 304 217 341Q217 380 240 403Q262 426 300 426Q338 426 360 403Q383 380 383 341Q383 304 360 282Q338 260 300 260Z"/><path id="m583" d="M83 0 120 200H35V265H132L168 465H70V530H180L217 730H287L250 530H410L447 730H517L480 530H565V465H468L432 265H530V200H420L383 0H313L350 200H190L153 0H83ZM202 265H362L398 465H238L202 265Z"/><path id="m585" d="M75 -110 430 830H525L170 -110H75Z"/><path id="m599" d="M140 290V370H460V290H140Z"/><path id="m602" d="M0 290V370H600V290H0Z"/><path id="m66" d="M105 0V82H254V648H105V730H495V648H346V82H495V0H105Z"/><path id="m80" d="M92 0V730H182V417H290L452 730H550L369 379L560 0H457L287 338H182V0H92Z"/><path id="m82" d="M115 0V730H205V82H535V0H115Z"/><path id="m88" d="M76 0V730H194L270 494Q281 462 290 430Q299 399 303 382Q308 399 316 430Q324 462 334 495L406 730H524V0H436V265Q436 309 439 365Q442 421 447 480Q452 538 458 592Q463 645 467 685L349 320H254L135 685Q140 646 145 594Q150 543 154 486Q158 428 161 371Q164 314 164 265V0H76Z"/><path id="m89" d="M90 0V730H210L433 105Q431 130 428 166Q426 203 424 244Q423 284 423 320V730H510V0H390L168 625Q170 601 172 564Q174 528 176 488Q177 447 177 410V0H90Z"/><path id="m95" d="M300 -10Q234 -10 186 15Q139 40 114 88Q88 135 88 200V530Q88 596 114 643Q139 690 186 715Q234 740 300 740Q366 740 414 715Q461 690 486 643Q512 596 512 531V200Q512 135 486 88Q461 40 414 15Q366 -10 300 -10ZM300 71Q359 71 390 104Q422 138 422 200V530Q422 592 390 626Q359 659 300 659Q242 659 210 626Q178 592 178 530V200Q178 138 210 104Q242 71 300 71Z"/><path id="m963" d="M325 -180Q240 -180 177 -144Q114 -109 80 -44Q45 22 45 110V450Q45 540 78 605Q110 670 170 705Q231 740 315 740Q391 740 446 710Q501 681 530 626Q560 571 560 495V65H489V120H461L480 140Q480 102 451 78Q422 55 374 55Q309 55 274 94Q240 134 240 210V330Q240 406 274 446Q309 485 374 485Q422 485 451 462Q480 438 480 399L466 420H490L480 490V495Q480 552 461 591Q442 630 406 650Q369 670 315 670Q225 670 175 612Q125 554 125 450V110Q125 10 178 -48Q232 -105 325 -105H395V-180H325ZM400 118Q441 118 460 143Q480 168 480 220V331Q480 378 460 400Q441 422 400 422Q360 422 340 400Q320 377 320 330V210Q320 163 340 140Q360 118 400 118Z"/></defs><rect x="3" y="3" width="896" height="217" fill="#000"/><rect x="0" y="0" width="896" height="217" fill="#0a0907"/><rect x="0" y="0" width="896" height="22" fill="#e8e8e8"/><rect x="0" y="3" width="896" height="15" fill="url(#stripes)" opacity="0.22"/><rect x="304.2" y="1" width="287.6" height="19" fill="#e8e8e8"/><g transform="matrix(0.012 0 0 -0.012 314.2 15)" fill="#000"><use href="#m243" x="0"/><use href="#m180" x="620"/><use href="#m305" x="1240"/><use href="#m305" x="1860"/><use href="#m351" x="2480"/><use href="#m246" x="3100"/><use href="#m272" x="3720"/><use href="#m243" x="4340"/><use href="#m180" x="4960"/><use href="#m305" x="5580"/><use href="#m305" x="6200"/><use href="#m351" x="6820"/><use href="#m963" x="7440"/><use href="#m243" x="8060"/><use href="#m180" x="8680"/><use href="#m305" x="9300"/><use href="#m305" x="9920"/><use href="#m351" x="10540"/><use href="#m246" x="11160"/><use href="#m272" x="11780"/><use href="#m571" x="12400"/><use href="#m345" x="13020"/><use href="#m279" x="13640"/><use href="#m308" x="14260"/><use href="#m262" x="14880"/><use href="#m602" x="16120"/><use href="#m312" x="17360"/><use href="#m320" x="17980"/><use href="#m180" x="18600"/><use href="#m206" x="19220"/><use href="#m262" x="19840"/><use href="#m571" x="20460"/><use href="#m271" x="21080"/><use href="#m212" x="21700"/></g><rect x="7.5" y="5.5" width="11" height="11" fill="#fff" stroke="#000"/><rect x="877.5" y="5.5" width="11" height="11" fill="#fff" stroke="#000"/><rect x="879.5" y="7.5" width="5" height="5" fill="#fff" stroke="#000"/><rect x="0" y="21" width="896" height="1" fill="#000"/><rect x="0" y="22" width="896" height="3" fill="#ff5b1f"/><g transform="matrix(0.0125 0 0 -0.0125 22 53)" fill="#6b6558"><use href="#m583" x="0"/><use href="#m305" x="1200"/><use href="#m246" x="1800"/><use href="#m305" x="2400"/><use href="#m216" x="3000"/><use href="#m265" x="3600"/><use href="#m246" x="4200"/><use href="#m272" x="4800"/><use href="#m216" x="5400"/><use href="#m312" x="6000"/><use href="#m571" x="6600"/></g><g transform="matrix(0.0125 0 0 -0.0125 112 53)" fill="#c4baa3"><use href="#m27" x="600"/><use href="#m279" x="1200"/><use href="#m271" x="1800"/><use href="#m235" x="2400"/><use href="#m351" x="3000"/><use href="#m141" x="3600"/><use href="#m66" x="4200"/><use href="#m236" x="5400"/><use href="#m308" x="6000"/><use href="#m180" x="6600"/><use href="#m305" x="7200"/><use href="#m243" x="7800"/><use href="#m312" x="8400"/><use href="#m580" x="9600"/><use href="#m206" x="10800"/><use href="#m325" x="11400"/><use href="#m312" x="12000"/><use href="#m320" x="12600"/><use href="#m279" x="13200"/><use href="#m271" x="13800"/><use href="#m272" x="15000"/><use href="#m279" x="15600"/><use href="#m212" x="16200"/><use href="#m216" x="16800"/><use href="#m312" x="17400"/><use href="#m580" x="18600"/><use href="#m33" x="19800"/><use href="#m246" x="20400"/><use href="#m235" x="21000"/><use href="#m235" x="21600"/><use href="#m325" x="22200"/><use href="#m312" x="22800"/><use href="#m216" x="23400"/><use href="#m308" x="24000"/><use href="#m312" x="24600"/><use href="#m580" x="25800"/><use href="#m56" x="27000"/><use href="#m121" x="27600"/><use href="#m141" x="28200"/><use href="#m307" x="29400"/><use href="#m325" x="30000"/><use href="#m216" x="30600"/><use href="#m325" x="31200"/><use href="#m216" x="31800"/><use href="#m312" x="32400"/><use href="#m180" x="33600"/><use href="#m272" x="34200"/><use href="#m212" x="34800"/><use href="#m1" x="36000"/><use href="#m121" x="36600"/><use href="#m66" x="37200"/><use href="#m312" x="37800"/></g><g transform="matrix(0.0125 0 0 -0.0125 22 77)" fill="#6b6558"><use href="#m583" x="0"/><use href="#m271" x="1200"/><use href="#m279" x="1800"/><use href="#m212" x="2400"/><use href="#m216" x="3000"/><use href="#m265" x="3600"/><use href="#m312" x="4200"/><use href="#m571" x="4800"/></g><g transform="matrix(0.0125 0 0 -0.0125 89.5 77)" fill="#c4baa3"><use href="#m55" x="600"/><use href="#m82" x="1200"/><use href="#m141" x="1800"/><use href="#m166" x="2400"/><use href="#m571" x="3000"/><use href="#m538" x="3600"/><use href="#m580" x="4800"/><use href="#m123" x="6000"/><use href="#m345" x="6600"/><use href="#m216" x="7200"/><use href="#m272" x="7800"/><use href="#m66" x="9000"/><use href="#m271" x="9600"/><use href="#m180" x="10200"/><use href="#m236" x="10800"/><use href="#m216" x="11400"/><use href="#m37" x="12600"/><use href="#m212" x="13200"/><use href="#m246" x="13800"/><use href="#m320" x="14400"/><use href="#m580" x="15600"/><use href="#m128" x="16800"/><use href="#m320" x="17400"/><use href="#m180" x="18000"/><use href="#m205" x="18600"/><use href="#m265" x="19200"/><use href="#m216" x="19800"/><use href="#m33" x="21000"/><use href="#m246" x="21600"/><use href="#m235" x="22200"/><use href="#m235" x="22800"/><use href="#m325" x="23400"/><use href="#m312" x="24000"/><use href="#m246" x="24600"/><use href="#m279" x="25200"/><use href="#m272" x="25800"/><use href="#m580" x="27000"/><use href="#m82" x="28200"/><use href="#m279" x="28800"/><use href="#m124" x="29400"/><use href="#m1" x="30000"/><use href="#m320" x="31200"/><use href="#m308" x="31800"/><use href="#m180" x="32400"/><use href="#m246" x="33000"/><use href="#m272" x="33600"/><use href="#m246" x="34200"/><use href="#m272" x="34800"/><use href="#m236" x="35400"/><use href="#m580" x="36600"/><use href="#m128" x="37800"/><use href="#m1" x="38400"/><use href="#m88" x="39000"/><use href="#m539" x="39600"/><use href="#m580" x="40800"/><use href="#m167" x="42000"/><use href="#m95" x="42600"/><use href="#m82" x="43200"/><use href="#m95" x="43800"/><use href="#m580" x="45000"/><use href="#m89" x="46200"/><use href="#m1" x="46800"/><use href="#m55" x="47400"/><use href="#m89" x="48000"/><use href="#m216" x="48600"/><use href="#m320" x="49200"/></g><g transform="matrix(0.0125 0 0 -0.0125 22 101)" fill="#6b6558"><use href="#m583" x="0"/><use href="#m344" x="1200"/><use href="#m246" x="1800"/><use href="#m312" x="2400"/><use href="#m246" x="3000"/><use href="#m279" x="3600"/><use href="#m272" x="4200"/><use href="#m571" x="4800"/></g><g transform="matrix(0.0125 0 0 -0.0125 89.5 101)" fill="#c4baa3"><use href="#m312" x="600"/><use href="#m216" x="1200"/><use href="#m236" x="1800"/><use href="#m271" x="2400"/><use href="#m216" x="3000"/><use href="#m272" x="3600"/><use href="#m320" x="4200"/><use href="#m180" x="4800"/><use href="#m320" x="5400"/><use href="#m246" x="6000"/><use href="#m279" x="6600"/><use href="#m272" x="7200"/><use href="#m580" x="8400"/><use href="#m308" x="9600"/><use href="#m216" x="10200"/><use href="#m312" x="10800"/><use href="#m320" x="11400"/><use href="#m279" x="12000"/><use href="#m308" x="12600"/><use href="#m180" x="13200"/><use href="#m320" x="13800"/><use href="#m246" x="14400"/><use href="#m279" x="15000"/><use href="#m272" x="15600"/><use href="#m580" x="16800"/><use href="#m312" x="18000"/><use href="#m325" x="18600"/><use href="#m305" x="19200"/><use href="#m216" x="19800"/><use href="#m308" x="20400"/><use href="#m599" x="21000"/><use href="#m308" x="21600"/><use href="#m216" x="22200"/><use href="#m312" x="22800"/><use href="#m279" x="23400"/><use href="#m265" x="24000"/><use href="#m325" x="24600"/><use href="#m320" x="25200"/><use href="#m246" x="25800"/><use href="#m279" x="26400"/><use href="#m272" x="27000"/><use href="#m580" x="28200"/><use href="#m206" x="29400"/><use href="#m279" x="30000"/><use href="#m265" x="30600"/><use href="#m279" x="31200"/><use href="#m325" x="31800"/><use href="#m308" x="32400"/><use href="#m580" x="33600"/><use href="#m307" x="34800"/><use href="#m325" x="35400"/><use href="#m180" x="36000"/><use href="#m265" x="36600"/><use href="#m246" x="37200"/><use href="#m320" x="37800"/><use href="#m351" x="38400"/><use href="#m180" x="39600"/><use href="#m312" x="40200"/><use href="#m312" x="40800"/><use href="#m216" x="41400"/><use href="#m312" x="42000"/><use href="#m312" x="42600"/><use href="#m271" x="43200"/><use href="#m216" x="43800"/><use href="#m272" x="44400"/><use href="#m320" x="45000"/></g><g transform="matrix(0.0125 0 0 -0.0125 22 125)" fill="#6b6558"><use href="#m583" x="0"/><use href="#m206" x="1200"/><use href="#m279" x="1800"/><use href="#m212" x="2400"/><use href="#m216" x="3000"/><use href="#m571" x="3600"/></g><g transform="matrix(0.0125 0 0 -0.0125 74.5 125)" fill="#c4baa3"><use href="#m121" x="600"/><use href="#m351" x="1200"/><use href="#m320" x="1800"/><use href="#m243" x="2400"/><use href="#m279" x="3000"/><use href="#m272" x="3600"/><use href="#m580" x="4800"/><use href="#m121" x="6000"/><use href="#m351" x="6600"/><use href="#m136" x="7200"/><use href="#m279" x="7800"/><use href="#m308" x="8400"/><use href="#m206" x="9000"/><use href="#m243" x="9600"/><use href="#m580" x="10800"/><use href="#m95" x="12000"/><use href="#m89" x="12600"/><use href="#m89" x="13200"/><use href="#m166" x="13800"/><use href="#m124" x="15000"/><use href="#m325" x="15600"/><use href="#m272" x="16200"/><use href="#m320" x="16800"/><use href="#m246" x="17400"/><use href="#m271" x="18000"/><use href="#m216" x="18600"/><use href="#m580" x="19800"/><use href="#m27" x="21000"/><use href="#m1010" x="22200"/></g><g transform="matrix(0.0125 0 0 -0.0125 22 149)" fill="#6b6558"><use href="#m583" x="0"/><use href="#m180" x="1200"/><use href="#m236" x="1800"/><use href="#m216" x="2400"/><use href="#m272" x="3000"/><use href="#m320" x="3600"/><use href="#m312" x="4200"/><use href="#m571" x="4800"/></g><g transform="matrix(0.0125 0 0 -0.0125 89.5 149)" fill="#c4baa3"><use href="#m27" x="600"/><use href="#m265" x="1200"/><use href="#m180" x="1800"/><use href="#m325" x="2400"/><use href="#m212" x="3000"/><use href="#m216" x="3600"/><use href="#m27" x="4800"/><use href="#m279" x="5400"/><use href="#m212" x="6000"/><use href="#m216" x="6600"/><use href="#m580" x="7800"/><use href="#m27" x="9000"/><use href="#m279" x="9600"/><use href="#m212" x="10200"/><use href="#m216" x="10800"/><use href="#m350" x="11400"/><use href="#m580" x="12600"/><use href="#m88" x="13800"/><use href="#m27" x="14400"/><use href="#m121" x="15000"/></g><g transform="matrix(0.0125 0 0 -0.0125 22 173)" fill="#6b6558"><use href="#m583" x="0"/><use href="#m243" x="1200"/><use href="#m325" x="1800"/><use href="#m236" x="2400"/><use href="#m236" x="3000"/><use href="#m246" x="3600"/><use href="#m272" x="4200"/><use href="#m236" x="4800"/><use href="#m235" x="5400"/><use href="#m180" x="6000"/><use href="#m206" x="6600"/><use href="#m216" x="7200"/><use href="#m571" x="7800"/></g><g transform="matrix(0.0125 0 0 -0.0125 127 173)" fill="#c4baa3"><use href="#m537" x="600"/><use href="#m536" x="1200"/><use href="#m279" x="2400"/><use href="#m305" x="3000"/><use href="#m216" x="3600"/><use href="#m272" x="4200"/><use href="#m271" x="5400"/><use href="#m279" x="6000"/><use href="#m212" x="6600"/><use href="#m216" x="7200"/><use href="#m265" x="7800"/><use href="#m312" x="8400"/><use href="#m279" x="9600"/><use href="#m272" x="10200"/><use href="#m243" x="11400"/><use href="#m325" x="12000"/><use href="#m236" x="12600"/><use href="#m236" x="13200"/><use href="#m246" x="13800"/><use href="#m272" x="14400"/><use href="#m236" x="15000"/><use href="#m235" x="15600"/><use href="#m180" x="16200"/><use href="#m206" x="16800"/><use href="#m216" x="17400"/><use href="#m571" x="18000"/><use href="#m206" x="18600"/><use href="#m279" x="19200"/><use href="#m585" x="19800"/><use href="#m243" x="20400"/><use href="#m180" x="21000"/><use href="#m305" x="21600"/><use href="#m305" x="22200"/><use href="#m351" x="22800"/><use href="#m246" x="23400"/><use href="#m272" x="24000"/><use href="#m243" x="24600"/><use href="#m180" x="25200"/><use href="#m305" x="25800"/><use href="#m305" x="26400"/><use href="#m351" x="27000"/><use href="#m580" x="28200"/><use href="#m89" x="29400"/><use href="#m1" x="30000"/><use href="#m55" x="30600"/><use href="#m89" x="31200"/><use href="#m216" x="31800"/><use href="#m320" x="32400"/><use href="#m259" x="33600"/><use href="#m216" x="34200"/><use href="#m345" x="34800"/><use href="#m216" x="35400"/><use href="#m265" x="36000"/><use href="#m265" x="36600"/><use href="#m216" x="37200"/><use href="#m308" x="37800"/><use href="#m351" x="38400"/><use href="#m308" x="39600"/><use href="#m216" x="40200"/><use href="#m312" x="40800"/><use href="#m320" x="41400"/><use href="#m279" x="42000"/><use href="#m308" x="42600"/><use href="#m216" x="43200"/><use href="#m580" x="44400"/><use href="#m33" x="45600"/><use href="#m66" x="46200"/><use href="#m89" x="46800"/><use href="#m95" x="47400"/><use href="#m344" x="48000"/><use href="#m539" x="48600"/><use href="#m206" x="49800"/><use href="#m180" x="50400"/><use href="#m308" x="51000"/><use href="#m344" x="52200"/><use href="#m246" x="52800"/><use href="#m216" x="53400"/><use href="#m345" x="54000"/><use href="#m305" x="54600"/><use href="#m279" x="55200"/><use href="#m246" x="55800"/><use href="#m272" x="56400"/><use href="#m320" x="57000"/></g><g transform="matrix(0.0125 0 0 -0.0125 134.5 194)" fill="#c4baa3"><use href="#m55" x="0"/><use href="#m82" x="600"/><use href="#m141" x="1200"/><use href="#m166" x="1800"/><use href="#m571" x="2400"/><use href="#m538" x="3000"/><use href="#m80" x="4200"/><use href="#m265" x="4800"/><use href="#m216" x="5400"/><use href="#m246" x="6000"/><use href="#m272" x="6600"/><use href="#m82" x="7800"/><use href="#m279" x="8400"/><use href="#m124" x="9000"/><use href="#m1" x="9600"/><use href="#m312" x="10200"/><use href="#m580" x="11400"/><use href="#m95" x="12600"/><use href="#m89" x="13200"/><use href="#m89" x="13800"/><use href="#m166" x="14400"/><use href="#m308" x="15600"/><use href="#m216" x="16200"/><use href="#m320" x="16800"/><use href="#m279" x="17400"/><use href="#m325" x="18000"/><use href="#m206" x="18600"/><use href="#m243" x="19200"/></g><rect x="0.5" y="0.5" width="895" height="216" fill="none" stroke="#000"/></svg>
